<svg width="597" height="531" viewBox="0 0 597 531" fill="none" xmlns="http://www.w3.org/2000/svg">
<rect x="3" y="-3" width="591" height="524.684" transform="matrix(-1 0 0 1 597 6)" fill="url(#paint0_linear_1_122)" stroke="#464545" stroke-width="6"/>
<rect x="2.5" y="-2.5" width="252.034" height="467.13" transform="matrix(-1 0 0 1 573.27 33.4688)" fill="url(#paint1_linear_1_122)" stroke="#464545" stroke-width="5"/>
<path d="M29.2627 30.9688V498.115L31.7793 498.099L278.813 496.483L281.297 496.467V30.9688H29.2627Z" fill="url(#paint2_linear_1_122)" stroke="#464545" stroke-width="5"/>
<path d="M404.973 249.843C403.606 251.21 403.606 253.426 404.973 254.793L427.247 277.067C428.614 278.434 430.83 278.434 432.197 277.067C433.564 275.7 433.564 273.484 432.197 272.117L412.398 252.318L432.197 232.519C433.564 231.153 433.564 228.936 432.197 227.57C430.83 226.203 428.614 226.203 427.247 227.57L404.973 249.843ZM525.869 252.318V248.818L407.448 248.818V252.318V255.818L525.869 255.818V252.318Z" fill="#1FD388"/>
<path d="M201.499 249.843C202.866 251.21 202.866 253.426 201.499 254.793L179.225 277.067C177.858 278.434 175.642 278.434 174.275 277.067C172.909 275.7 172.909 273.484 174.275 272.117L194.074 252.318L174.275 232.519C172.909 231.153 172.909 228.936 174.275 227.57C175.642 226.203 177.858 226.203 179.225 227.57L201.499 249.843ZM80.603 252.318V248.818L199.024 248.818V252.318V255.818L80.603 255.818V252.318Z" fill="#1FD388"/>
<path d="M574.053 237.74V266.898H589V237.74H574.053Z" fill="#1FD388" stroke="#464545" stroke-width="4"/>
<path d="M8.00049 237.74V266.898H24.1323V237.74H8.00049Z" fill="#1FD388" stroke="#464545" stroke-width="4"/>
<defs>
<linearGradient id="paint0_linear_1_122" x1="292.5" y1="1.44767e-08" x2="292.069" y2="657.647" gradientUnits="userSpaceOnUse">
<stop stop-color="white"/>
<stop offset="1" stop-color="white" stop-opacity="0"/>
</linearGradient>
<linearGradient id="paint1_linear_1_122" x1="122.759" y1="140.578" x2="122.683" y2="681.884" gradientUnits="userSpaceOnUse">
<stop stop-color="white" stop-opacity="0.1"/>
<stop offset="0.6875" stop-color="#1061FF" stop-opacity="0.36"/>
</linearGradient>
<linearGradient id="paint2_linear_1_122" x1="156.038" y1="174.047" x2="156.114" y2="715.353" gradientUnits="userSpaceOnUse">
<stop stop-color="white" stop-opacity="0.1"/>
<stop offset="0.6875" stop-color="#1061FF" stop-opacity="0.36"/>
</linearGradient>
</defs>
</svg>
