<svg width="149" height="131" viewBox="0 0 149 131" fill="none" xmlns="http://www.w3.org/2000/svg">
<rect x="1" y="1" width="147" height="128.138" fill="url(#paint0_linear_2_1278)" stroke="#464545" stroke-width="2"/>
<rect x="6.75781" y="7.28711" width="66.3854" height="115.957" fill="url(#paint1_linear_2_1278)" stroke="#464545" stroke-width="2"/>
<rect x="11.4121" y="12.396" width="57.0766" height="104.954" fill="url(#paint2_linear_2_1278)" stroke="#464545" stroke-width="2"/>
<path d="M12.4121 13.7886L67.8766 63.6937L12.4121 116.742" stroke="#464545" stroke-width="2"/>
<rect x="1" y="-1" width="66.3854" height="115.957" transform="matrix(-1 0 0 1 143.182 8.28711)" fill="url(#paint3_linear_2_1278)" stroke="#464545" stroke-width="2"/>
<rect x="1" y="-1" width="57.0766" height="104.954" transform="matrix(-1 0 0 1 138.527 13.7886)" fill="url(#paint4_linear_2_1278)" stroke="#464545" stroke-width="2"/>
<path d="M136.527 13.7886L81.0629 63.6937L136.527 116.742" stroke="#464545" stroke-width="2"/>
<path d="M81.4507 116.742L107.825 13.7886L136.527 116.742" stroke="#464545" stroke-width="2"/>
<path d="M77.6611 60.7646V67.0166H78.8047V60.7646H77.6611Z" fill="#00FF94" stroke="#464545" stroke-width="2"/>
<rect x="1" y="1" width="147" height="128.138" fill="url(#paint5_linear_2_1278)" stroke="#464545" stroke-width="2"/>
<rect x="6.75781" y="7.28711" width="66.3854" height="115.957" fill="url(#paint6_linear_2_1278)" stroke="#464545" stroke-width="2"/>
<rect x="11.4121" y="12.396" width="57.0766" height="104.954" fill="url(#paint7_linear_2_1278)" stroke="#464545" stroke-width="2"/>
<path d="M12.4121 13.7886L67.8766 63.6937L12.4121 116.742" stroke="#464545" stroke-width="2"/>
<rect x="1" y="-1" width="66.3854" height="115.957" transform="matrix(-1 0 0 1 143.182 8.28711)" fill="url(#paint8_linear_2_1278)" stroke="#464545" stroke-width="2"/>
<rect x="1" y="-1" width="57.0766" height="104.954" transform="matrix(-1 0 0 1 138.453 13.7886)" fill="url(#paint9_linear_2_1278)" stroke="#464545" stroke-width="2"/>
<path d="M136.527 13.7886L81.0629 63.6937L136.527 116.742" stroke="#464545" stroke-width="2"/>
<path d="M81.4507 116.742L108 16.5L136.527 116.742" stroke="#464545" stroke-width="2"/>
<path d="M78.2324 60.2637C77.2065 60.2637 76.3742 61.0952 76.374 62.1211V66.4443C76.3743 67.4701 77.2066 68.3018 78.2324 68.3018C79.2581 68.3016 80.0896 67.47 80.0898 66.4443V62.1211C80.0897 61.0953 79.2582 60.2638 78.2324 60.2637Z" fill="#00FF94" stroke="#464545"/>
<path d="M89.1289 63.7827C89.1287 63.3586 88.7845 63.0151 88.3604 63.0151H78.7158C78.2917 63.0151 77.9474 63.3586 77.9473 63.7827C77.9473 64.207 78.2915 64.5513 78.7158 64.5513H88.3604C88.7846 64.5513 89.1289 64.207 89.1289 63.7827Z" fill="#00FFA3" stroke="#464545"/>
<defs>
<linearGradient id="paint0_linear_2_1278" x1="74.5" y1="2" x2="74.3972" y2="161.932" gradientUnits="userSpaceOnUse">
<stop stop-color="white"/>
<stop offset="1" stop-color="white" stop-opacity="0"/>
</linearGradient>
<linearGradient id="paint1_linear_2_1278" x1="39.9505" y1="8.28711" x2="39.7616" y2="152.774" gradientUnits="userSpaceOnUse">
<stop stop-color="white"/>
<stop offset="1" stop-color="white" stop-opacity="0"/>
</linearGradient>
<linearGradient id="paint2_linear_2_1278" x1="39.7815" y1="44.7141" x2="39.7646" y2="165.307" gradientUnits="userSpaceOnUse">
<stop stop-color="white" stop-opacity="0.1"/>
<stop offset="0.6875" stop-color="#1061FF" stop-opacity="0.36"/>
</linearGradient>
<linearGradient id="paint3_linear_2_1278" x1="32.1927" y1="3.18059e-09" x2="32.0038" y2="144.487" gradientUnits="userSpaceOnUse">
<stop stop-color="white"/>
<stop offset="1" stop-color="white" stop-opacity="0"/>
</linearGradient>
<linearGradient id="paint4_linear_2_1278" x1="27.3694" y1="31.3181" x2="27.3525" y2="151.911" gradientUnits="userSpaceOnUse">
<stop stop-color="white" stop-opacity="0.1"/>
<stop offset="0.6875" stop-color="#1061FF" stop-opacity="0.36"/>
</linearGradient>
<linearGradient id="paint5_linear_2_1278" x1="74.5" y1="2" x2="74.3972" y2="161.932" gradientUnits="userSpaceOnUse">
<stop stop-color="white"/>
<stop offset="1" stop-color="white" stop-opacity="0"/>
</linearGradient>
<linearGradient id="paint6_linear_2_1278" x1="39.9505" y1="8.28711" x2="39.7616" y2="152.774" gradientUnits="userSpaceOnUse">
<stop stop-color="white"/>
<stop offset="1" stop-color="white" stop-opacity="0"/>
</linearGradient>
<linearGradient id="paint7_linear_2_1278" x1="39.7815" y1="44.7141" x2="39.7646" y2="165.307" gradientUnits="userSpaceOnUse">
<stop stop-color="white" stop-opacity="0.1"/>
<stop offset="0.6875" stop-color="#1061FF" stop-opacity="0.36"/>
</linearGradient>
<linearGradient id="paint8_linear_2_1278" x1="32.1927" y1="3.18059e-09" x2="32.0038" y2="144.487" gradientUnits="userSpaceOnUse">
<stop stop-color="white"/>
<stop offset="1" stop-color="white" stop-opacity="0"/>
</linearGradient>
<linearGradient id="paint9_linear_2_1278" x1="27.3694" y1="31.3181" x2="27.3525" y2="151.911" gradientUnits="userSpaceOnUse">
<stop stop-color="white" stop-opacity="0.1"/>
<stop offset="0.6875" stop-color="#1061FF" stop-opacity="0.36"/>
</linearGradient>
</defs>
</svg>
