<svg width="149" height="125" viewBox="0 0 149 125" fill="none" xmlns="http://www.w3.org/2000/svg">
<rect x="1" y="1" width="147" height="122.583" fill="url(#paint0_linear_2_1243)" stroke="#464545" stroke-width="2"/>
<rect x="78.0078" y="6.63428" width="64.3575" height="110.938" fill="url(#paint1_linear_2_1243)" stroke="#464545" stroke-width="2"/>
<rect x="78.0078" y="7.00928" width="64.3575" height="110.562" fill="url(#paint2_linear_2_1243)" stroke="#464545" stroke-width="2"/>
<rect x="6.63477" y="6.63428" width="64.3575" height="110.938" fill="url(#paint3_linear_2_1243)" stroke="#464545" stroke-width="2"/>
<rect x="11.1426" y="11.8916" width="55.3419" height="100.42" fill="url(#paint4_linear_2_1243)" stroke="#464545" stroke-width="2"/>
<path d="M12.1426 12.8916L65.8602 60.5988L12.1426 111.311" stroke="#464545" stroke-width="2"/>
<path d="M65.4845 111.311L39.9405 12.8916L12.1426 111.311" stroke="#464545" stroke-width="2"/>
<line x1="110.438" y1="52.3354" x2="110.438" y2="69.6152" stroke="#5F5A5A" stroke-width="2"/>
<line x1="118.453" y1="60.8516" x2="101.925" y2="60.8516" stroke="#5F5A5A" stroke-width="2"/>
<path d="M68.4922 57.3438C69.4608 57.3438 70.2461 58.129 70.2461 59.0977V63.2295C70.2461 64.1981 69.4608 64.9834 68.4922 64.9834C67.5235 64.9834 66.7383 64.1981 66.7383 63.2295V59.0977C66.7383 58.129 67.5235 57.3438 68.4922 57.3438Z" fill="#00FF94" stroke="#464545"/>
<path d="M58.0977 60.689C58.0977 60.2957 58.4163 59.9763 58.8096 59.9761H68.0303C68.4237 59.9761 68.7432 60.2955 68.7432 60.689C68.7429 61.0822 68.4236 61.4009 68.0303 61.4009H58.8096C58.4165 61.4006 58.0979 61.082 58.0977 60.689Z" fill="#00FFA3" stroke="#464545"/>
<defs>
<linearGradient id="paint0_linear_2_1243" x1="74.5" y1="2" x2="74.4061" y2="154.889" gradientUnits="userSpaceOnUse">
<stop stop-color="white"/>
<stop offset="1" stop-color="white" stop-opacity="0"/>
</linearGradient>
<linearGradient id="paint1_linear_2_1243" x1="110.187" y1="7.63428" x2="110.008" y2="145.758" gradientUnits="userSpaceOnUse">
<stop stop-color="white"/>
<stop offset="1" stop-color="white" stop-opacity="0"/>
</linearGradient>
<linearGradient id="paint2_linear_2_1243" x1="109.995" y1="41.0335" x2="109.979" y2="168.196" gradientUnits="userSpaceOnUse">
<stop stop-color="white" stop-opacity="0.1"/>
<stop offset="0.6875" stop-color="#1061FF" stop-opacity="0.36"/>
</linearGradient>
<linearGradient id="paint3_linear_2_1243" x1="38.8135" y1="7.63428" x2="38.6353" y2="145.758" gradientUnits="userSpaceOnUse">
<stop stop-color="white"/>
<stop offset="1" stop-color="white" stop-opacity="0"/>
</linearGradient>
<linearGradient id="paint4_linear_2_1243" x1="38.6499" y1="42.8304" x2="38.634" y2="158.112" gradientUnits="userSpaceOnUse">
<stop stop-color="white" stop-opacity="0.1"/>
<stop offset="0.6875" stop-color="#1061FF" stop-opacity="0.36"/>
</linearGradient>
</defs>
</svg>
