<svg width="149" height="131" viewBox="0 0 149 131" fill="none" xmlns="http://www.w3.org/2000/svg">
<rect x="1" y="-1" width="147" height="128.138" transform="matrix(-1 0 0 1 149 2)" fill="url(#paint0_linear_2_1341)" stroke="#464545" stroke-width="2"/>
<rect x="1" y="-1" width="66.3854" height="115.957" transform="matrix(-1 0 0 1 143.244 8.28711)" fill="url(#paint1_linear_2_1341)" stroke="#464545" stroke-width="2"/>
<rect x="1" y="-1" width="57.0766" height="104.954" transform="matrix(-1 0 0 1 138.59 13.396)" fill="url(#paint2_linear_2_1341)" stroke="#464545" stroke-width="2"/>
<path d="M136.59 13.7886L81.1254 63.6937L136.59 116.742" stroke="#464545" stroke-width="2"/>
<rect x="6.81836" y="7.28711" width="66.3854" height="115.957" fill="url(#paint3_linear_2_1341)" stroke="#464545" stroke-width="2"/>
<rect x="11.4727" y="12.7886" width="57.0766" height="104.954" fill="url(#paint4_linear_2_1341)" stroke="#464545" stroke-width="2"/>
<path d="M12.4727 13.7886L67.9371 63.6937L12.4727 116.742" stroke="#464545" stroke-width="2"/>
<path d="M67.5493 116.742L41.1746 13.7886L12.4727 116.742" stroke="#464545" stroke-width="2"/>
<path d="M71.3389 60.7646V67.0166H70.1953V60.7646H71.3389Z" fill="#00FF94" stroke="#464545" stroke-width="2"/>
<rect x="1" y="-1" width="147" height="128.138" transform="matrix(-1 0 0 1 149 2)" fill="url(#paint5_linear_2_1341)" stroke="#464545" stroke-width="2"/>
<rect x="1" y="-1" width="66.3854" height="115.957" transform="matrix(-1 0 0 1 143.244 8.28711)" fill="url(#paint6_linear_2_1341)" stroke="#464545" stroke-width="2"/>
<rect x="1" y="-1" width="57.0766" height="104.954" transform="matrix(-1 0 0 1 138.59 13.396)" fill="url(#paint7_linear_2_1341)" stroke="#464545" stroke-width="2"/>
<path d="M136.59 13.7886L81.1254 63.6937L136.59 116.742" stroke="#464545" stroke-width="2"/>
<rect x="6.81836" y="7.28711" width="66.3854" height="115.957" fill="url(#paint8_linear_2_1341)" stroke="#464545" stroke-width="2"/>
<rect x="11.4727" y="12.7886" width="57.0766" height="104.954" fill="url(#paint9_linear_2_1341)" stroke="#464545" stroke-width="2"/>
<path d="M12.4727 13.7886L67.9371 63.6937L12.4727 116.742" stroke="#464545" stroke-width="2"/>
<path d="M67.5493 116.742L41.0005 17L12.4727 116.742" stroke="#464545" stroke-width="2"/>
<path d="M70.375 60.2637C71.4009 60.2637 72.2332 61.0952 72.2334 62.1211V66.4443C72.2332 67.4701 71.4008 68.3018 70.375 68.3018C69.3493 68.3016 68.5178 67.47 68.5176 66.4443V62.1211C68.5177 61.0953 69.3492 60.2638 70.375 60.2637Z" fill="#00FF94" stroke="#464545"/>
<path d="M59.4785 63.7822C59.4787 63.3581 59.8229 63.0146 60.2471 63.0146H69.8916C70.3158 63.0146 70.66 63.3581 70.6602 63.7822C70.6602 64.2065 70.3159 64.5508 69.8916 64.5508H60.2471C59.8228 64.5508 59.4785 64.2065 59.4785 63.7822Z" fill="#00FFA3" stroke="#464545"/>
<defs>
<linearGradient id="paint0_linear_2_1341" x1="72.5" y1="3.52057e-09" x2="72.3972" y2="159.932" gradientUnits="userSpaceOnUse">
<stop stop-color="white"/>
<stop offset="1" stop-color="white" stop-opacity="0"/>
</linearGradient>
<linearGradient id="paint1_linear_2_1341" x1="32.1927" y1="3.18059e-09" x2="32.0038" y2="144.487" gradientUnits="userSpaceOnUse">
<stop stop-color="white"/>
<stop offset="1" stop-color="white" stop-opacity="0"/>
</linearGradient>
<linearGradient id="paint2_linear_2_1341" x1="27.3694" y1="31.3181" x2="27.3525" y2="151.911" gradientUnits="userSpaceOnUse">
<stop stop-color="white" stop-opacity="0.1"/>
<stop offset="0.6875" stop-color="#1061FF" stop-opacity="0.36"/>
</linearGradient>
<linearGradient id="paint3_linear_2_1341" x1="40.011" y1="8.28711" x2="39.8221" y2="152.774" gradientUnits="userSpaceOnUse">
<stop stop-color="white"/>
<stop offset="1" stop-color="white" stop-opacity="0"/>
</linearGradient>
<linearGradient id="paint4_linear_2_1341" x1="39.842" y1="45.1067" x2="39.8251" y2="165.699" gradientUnits="userSpaceOnUse">
<stop stop-color="white" stop-opacity="0.1"/>
<stop offset="0.6875" stop-color="#1061FF" stop-opacity="0.36"/>
</linearGradient>
<linearGradient id="paint5_linear_2_1341" x1="72.5" y1="3.52057e-09" x2="72.3972" y2="159.932" gradientUnits="userSpaceOnUse">
<stop stop-color="white"/>
<stop offset="1" stop-color="white" stop-opacity="0"/>
</linearGradient>
<linearGradient id="paint6_linear_2_1341" x1="32.1927" y1="3.18059e-09" x2="32.0038" y2="144.487" gradientUnits="userSpaceOnUse">
<stop stop-color="white"/>
<stop offset="1" stop-color="white" stop-opacity="0"/>
</linearGradient>
<linearGradient id="paint7_linear_2_1341" x1="27.3694" y1="31.3181" x2="27.3525" y2="151.911" gradientUnits="userSpaceOnUse">
<stop stop-color="white" stop-opacity="0.1"/>
<stop offset="0.6875" stop-color="#1061FF" stop-opacity="0.36"/>
</linearGradient>
<linearGradient id="paint8_linear_2_1341" x1="40.011" y1="8.28711" x2="39.8221" y2="152.774" gradientUnits="userSpaceOnUse">
<stop stop-color="white"/>
<stop offset="1" stop-color="white" stop-opacity="0"/>
</linearGradient>
<linearGradient id="paint9_linear_2_1341" x1="39.842" y1="45.1067" x2="39.8251" y2="165.699" gradientUnits="userSpaceOnUse">
<stop stop-color="white" stop-opacity="0.1"/>
<stop offset="0.6875" stop-color="#1061FF" stop-opacity="0.36"/>
</linearGradient>
</defs>
</svg>
