<svg width="149" height="125" viewBox="0 0 149 125" fill="none" xmlns="http://www.w3.org/2000/svg">
<rect x="1" y="1" width="147" height="122.583" fill="url(#paint0_linear_2_1225)" stroke="#464545" stroke-width="2"/>
<rect x="6.63477" y="6.63477" width="64.3576" height="110.938" fill="url(#paint1_linear_2_1225)" stroke="#464545" stroke-width="2"/>
<rect x="6.63477" y="7.01074" width="64.3576" height="110.938" fill="url(#paint2_linear_2_1225)" stroke="#464545" stroke-width="2"/>
<rect x="1" y="-1" width="64.3576" height="110.938" transform="matrix(-1 0 0 1 143.365 8.01074)" fill="url(#paint3_linear_2_1225)" stroke="#464545" stroke-width="2"/>
<rect x="1" y="-1" width="55.3419" height="100.42" transform="matrix(-1 0 0 1 138.857 13.2695)" fill="url(#paint4_linear_2_1225)" stroke="#464545" stroke-width="2"/>
<path d="M136.857 13.2695L83.1398 60.9767L136.857 111.689" stroke="#464545" stroke-width="2"/>
<g filter="url(#filter0_d_2_1225)">
<path d="M83.5155 111.689L109.5 15.5L136.857 111.689" stroke="#464545" stroke-width="2"/>
</g>
<line x1="39.0605" y1="52.7124" x2="39.0605" y2="69.9922" stroke="#5F5A5A" stroke-width="2"/>
<line x1="47.0781" y1="61.2261" x2="30.5496" y2="61.2261" stroke="#5F5A5A" stroke-width="2"/>
<path d="M80.5098 57.7202C79.5411 57.7202 78.7559 58.5055 78.7559 59.4741V63.606C78.7559 64.5746 79.5411 65.3599 80.5098 65.3599C81.4784 65.3599 82.2637 64.5746 82.2637 63.606V59.4741C82.2637 58.5055 81.4784 57.7202 80.5098 57.7202Z" fill="#00FF94" stroke="#464545"/>
<path d="M90.9023 61.0625C90.9023 60.6692 90.5837 60.3499 90.1904 60.3496H80.9697C80.5763 60.3496 80.2568 60.6691 80.2568 61.0625C80.2571 61.4557 80.5764 61.7744 80.9697 61.7744H90.1904C90.5835 61.7742 90.9021 61.4556 90.9023 61.0625Z" fill="#00FFA3" stroke="#464545"/>
<defs>
<filter id="filter0_d_2_1225" x="78.5508" y="11.7573" width="63.2676" height="108.205" filterUnits="userSpaceOnUse" color-interpolation-filters="sRGB">
<feFlood flood-opacity="0" result="BackgroundImageFix"/>
<feColorMatrix in="SourceAlpha" type="matrix" values="0 0 0 0 0 0 0 0 0 0 0 0 0 0 0 0 0 0 127 0" result="hardAlpha"/>
<feOffset dy="4"/>
<feGaussianBlur stdDeviation="2"/>
<feComposite in2="hardAlpha" operator="out"/>
<feColorMatrix type="matrix" values="0 0 0 0 0 0 0 0 0 0 0 0 0 0 0 0 0 0 0.25 0"/>
<feBlend mode="normal" in2="BackgroundImageFix" result="effect1_dropShadow_2_1225"/>
<feBlend mode="normal" in="SourceGraphic" in2="effect1_dropShadow_2_1225" result="shape"/>
</filter>
<linearGradient id="paint0_linear_2_1225" x1="74.5" y1="2" x2="74.4061" y2="154.889" gradientUnits="userSpaceOnUse">
<stop stop-color="white"/>
<stop offset="1" stop-color="white" stop-opacity="0"/>
</linearGradient>
<linearGradient id="paint1_linear_2_1225" x1="38.8135" y1="7.63477" x2="38.6353" y2="145.758" gradientUnits="userSpaceOnUse">
<stop stop-color="white"/>
<stop offset="1" stop-color="white" stop-opacity="0"/>
</linearGradient>
<linearGradient id="paint2_linear_2_1225" x1="38.6223" y1="41.1491" x2="38.6056" y2="168.751" gradientUnits="userSpaceOnUse">
<stop stop-color="white" stop-opacity="0.1"/>
<stop offset="0.6875" stop-color="#1061FF" stop-opacity="0.36"/>
</linearGradient>
<linearGradient id="paint3_linear_2_1225" x1="31.1788" y1="3.0405e-09" x2="31.0005" y2="138.123" gradientUnits="userSpaceOnUse">
<stop stop-color="white"/>
<stop offset="1" stop-color="white" stop-opacity="0"/>
</linearGradient>
<linearGradient id="paint4_linear_2_1225" x1="26.5073" y1="29.9388" x2="26.4914" y2="145.22" gradientUnits="userSpaceOnUse">
<stop stop-color="white" stop-opacity="0.1"/>
<stop offset="0.6875" stop-color="#1061FF" stop-opacity="0.36"/>
</linearGradient>
</defs>
</svg>
