<svg width="416" height="76" viewBox="0 0 416 76" fill="none" xmlns="http://www.w3.org/2000/svg">
<path d="M128.9 41.7102C128.901 40.7639 129.853 40.1147 130.734 40.4602C131.243 40.6599 131.58 41.148 131.587 41.6946L131.717 52.5198C131.726 53.3039 131.093 53.9445 130.309 53.9446C129.531 53.9446 128.9 53.314 128.9 52.5364V41.7102Z" fill="black"/>
<path d="M128.9 41.7102C128.901 40.7639 129.853 40.1147 130.734 40.4602C131.243 40.6599 131.58 41.148 131.587 41.6946L131.717 52.5198C131.726 53.3039 131.093 53.9445 130.309 53.9446C129.531 53.9446 128.9 53.314 128.9 52.5364V41.7102Z" stroke="black"/>
<path d="M34.6367 22.8096C34.6368 21.7396 35.207 20.7503 36.1328 20.2139L36.2129 20.167C37.0375 19.6197 38.1396 20.2115 38.1396 21.2012V51.8496C38.1396 52.8168 37.3558 53.6013 36.3887 53.6016C35.4213 53.6016 34.6367 52.817 34.6367 51.8496V22.8096Z" fill="black"/>
<path d="M34.6367 22.8096C34.6368 21.7396 35.207 20.7503 36.1328 20.2139L36.2129 20.167C37.0375 19.6197 38.1396 20.2115 38.1396 21.2012V51.8496C38.1396 52.8168 37.3558 53.6013 36.3887 53.6016C35.4213 53.6016 34.6367 52.817 34.6367 51.8496V22.8096Z" stroke="black"/>
<path d="M25.1777 26.999C25.1777 25.9157 25.7872 24.9243 26.7539 24.4355C27.6096 23.9401 28.6807 24.5581 28.6807 25.5469V51.8496C28.6807 52.8168 27.8968 53.6013 26.9297 53.6016C25.9623 53.6016 25.1777 52.817 25.1777 51.8496V26.999Z" fill="black"/>
<path d="M25.1777 26.999C25.1777 25.9157 25.7872 24.9243 26.7539 24.4355C27.6096 23.9401 28.6807 24.5581 28.6807 25.5469V51.8496C28.6807 52.8168 27.8968 53.6013 26.9297 53.6016C25.9623 53.6016 25.1777 52.817 25.1777 51.8496V26.999Z" stroke="black"/>
<rect x="42.7285" y="53.5942" width="36.5594" height="3.50307" rx="1.75154" transform="rotate(-90 42.7285 53.5942)" fill="black"/>
<rect x="42.7285" y="53.5942" width="36.5594" height="3.50307" rx="1.75154" transform="rotate(-90 42.7285 53.5942)" stroke="black"/>
<rect x="56.7402" y="53.5942" width="42.468" height="3.50307" rx="1.75154" transform="rotate(-90 56.7402 53.5942)" fill="black"/>
<rect x="56.7402" y="53.5942" width="42.468" height="3.50307" rx="1.75154" transform="rotate(-90 56.7402 53.5942)" stroke="black"/>
<rect x="65.1484" y="53.5942" width="52.0694" height="3.50307" rx="1.75154" transform="rotate(-90 65.1484 53.5942)" fill="black"/>
<rect x="65.1484" y="53.5942" width="52.0694" height="3.50307" rx="1.75154" transform="rotate(-90 65.1484 53.5942)" stroke="black"/>
<rect x="86.5156" y="53.5942" width="42.468" height="3.50307" rx="1.75154" transform="rotate(-90 86.5156 53.5942)" fill="black"/>
<rect x="86.5156" y="53.5942" width="42.468" height="3.50307" rx="1.75154" transform="rotate(-90 86.5156 53.5942)" stroke="black"/>
<path d="M95.2754 15.2075C95.2754 13.9638 96.5356 13.1165 97.6875 13.5854C98.3471 13.8541 98.7783 14.4953 98.7783 15.2075V52.2114C98.7783 53.1786 97.9945 53.9632 97.0273 53.9634C96.06 53.9634 95.2754 53.1788 95.2754 52.2114V15.2075Z" fill="black"/>
<path d="M95.2754 15.2075C95.2754 13.9638 96.5356 13.1165 97.6875 13.5854C98.3471 13.8541 98.7783 14.4953 98.7783 15.2075V52.2114C98.7783 53.1786 97.9945 53.9632 97.0273 53.9634C96.06 53.9634 95.2754 53.1788 95.2754 52.2114V15.2075Z" stroke="black"/>
<path d="M107.542 18.4966C107.538 18.1315 107.882 17.8619 108.235 17.9517L109.353 18.3306C110.57 18.7436 111.389 19.886 111.389 21.1714V52.2036C111.389 53.1754 110.601 53.9632 109.629 53.9634C108.664 53.9634 107.878 53.1856 107.868 52.2202L107.542 18.4966Z" fill="black"/>
<path d="M107.542 18.4966C107.538 18.1315 107.882 17.8619 108.235 17.9517L109.353 18.3306C110.57 18.7436 111.389 19.886 111.389 21.1714V52.2036C111.389 53.1754 110.601 53.9632 109.629 53.9634C108.664 53.9634 107.878 53.1856 107.868 52.2202L107.542 18.4966Z" stroke="black"/>
<path d="M115.512 24.7275C115.512 23.3578 117.141 22.642 118.15 23.5684C118.475 23.8664 118.659 24.2869 118.659 24.7275V35.002C118.659 35.5087 118.415 35.9846 118.004 36.2803C116.963 37.0281 115.512 36.2839 115.512 35.002V24.7275Z" fill="black"/>
<path d="M115.512 24.7275C115.512 23.3578 117.141 22.642 118.15 23.5684C118.475 23.8664 118.659 24.2869 118.659 24.7275V35.002C118.659 35.5087 118.415 35.9846 118.004 36.2803C116.963 37.0281 115.512 36.2839 115.512 35.002V24.7275Z" stroke="black"/>
<path d="M123.248 25.9245L129.58 28.1215C130.419 28.4125 131.285 27.7864 131.278 26.8938C131.273 26.3522 130.936 25.867 130.432 25.6758L118.627 21.1998L116.838 20.5678C116.176 20.3341 115.485 20.8147 115.469 21.5198C115.446 22.5101 116.064 23.4062 116.995 23.7325L123.248 25.9245Z" fill="black"/>
<path d="M123.248 25.9245L129.58 28.1215C130.419 28.4125 131.285 27.7864 131.278 26.8938C131.273 26.3522 130.936 25.867 130.432 25.6758L118.627 21.1998L116.838 20.5678C116.176 20.3341 115.485 20.8147 115.469 21.5198C115.446 22.5101 116.064 23.4062 116.995 23.7325L123.248 25.9245Z" stroke="black"/>
<path d="M110.009 21.3239C110.681 21.5727 111.388 21.0774 111.388 20.3578C111.388 19.4695 110.841 18.6697 110.016 18.3506L98.3563 13.8401L97.309 13.4202C96.3298 13.0272 95.2738 13.7448 95.2737 14.8041C95.2737 15.4406 95.6706 16.0123 96.2648 16.2325L110.009 21.3239Z" fill="black"/>
<path d="M110.009 21.3239C110.681 21.5727 111.388 21.0774 111.388 20.3578C111.388 19.4695 110.841 18.6697 110.016 18.3506L98.3563 13.8401L97.309 13.4202C96.3298 13.0272 95.2738 13.7448 95.2737 14.8041C95.2737 15.4406 95.6706 16.0123 96.2648 16.2325L110.009 21.3239Z" stroke="black"/>
<path d="M117.26 53.9634C116.082 53.9631 115.425 52.6041 116.156 51.6812C116.421 51.3463 116.825 51.1496 117.252 51.147L128.396 51.0796C128.804 51.0771 129.194 51.2477 129.47 51.5493C130.315 52.475 129.658 53.9634 128.404 53.9634H117.26Z" fill="black"/>
<path d="M117.26 53.9634C116.082 53.9631 115.425 52.6041 116.156 51.6812C116.421 51.3463 116.825 51.1496 117.252 51.147L128.396 51.0796C128.804 51.0771 129.194 51.2477 129.47 51.5493C130.315 52.475 129.658 53.9634 128.404 53.9634H117.26Z" stroke="black"/>
<path d="M129.47 42.9338C130.011 43.1434 130.62 42.8185 130.75 42.2512C130.976 41.2648 130.461 40.2698 129.526 39.889L117.699 35.0704C116.898 34.744 115.984 35.2208 115.79 36.0663C115.6 36.8978 116.043 37.7344 116.836 38.0416L129.47 42.9338Z" fill="black"/>
<path d="M129.47 42.9338C130.011 43.1434 130.62 42.8185 130.75 42.2512C130.976 41.2648 130.461 40.2698 129.526 39.889L117.699 35.0704C116.898 34.744 115.984 35.2208 115.79 36.0663C115.6 36.8978 116.043 37.7344 116.836 38.0416L129.47 42.9338Z" stroke="black"/>
<rect x="75.6562" y="53.5942" width="46.8993" height="3.50307" rx="1.75154" transform="rotate(-90 75.6562 53.5942)" fill="black"/>
<rect x="75.6562" y="53.5942" width="46.8993" height="3.50307" rx="1.75154" transform="rotate(-90 75.6562 53.5942)" stroke="black"/>
<rect x="43.1211" y="50.6201" width="16.3689" height="3.02208" rx="1.51104" fill="black"/>
<rect x="43.1211" y="50.6201" width="16.3689" height="3.02208" rx="1.51104" stroke="black"/>
<rect x="97.7266" y="34.7615" width="11.9104" height="3.32358" rx="1.66179" fill="black"/>
<rect x="97.7266" y="34.7615" width="11.9104" height="3.32358" rx="1.66179" stroke="black"/>
<rect x="45.707" y="34.8765" width="11.8804" height="1.56164" rx="0.780821" fill="black"/>
<rect x="45.707" y="34.8765" width="11.8804" height="1.56164" rx="0.780821" stroke="black"/>
<rect x="52.1406" y="16.4839" width="35.3972" height="1.48505" rx="0.742524" transform="rotate(90 52.1406 16.4839)" fill="black"/>
<rect x="52.1406" y="16.4839" width="35.3972" height="1.48505" rx="0.742524" transform="rotate(90 52.1406 16.4839)" stroke="black"/>
<path d="M34.3402 34.7348C35.5633 34.4752 36.7094 35.3763 36.7468 36.6275C36.7776 37.6615 36.0306 38.5661 35.0111 38.7291L28.4696 39.7751C27.5039 39.9295 26.6319 39.2066 26.6025 38.2272C26.5708 37.1667 27.3085 36.2268 28.3453 36.0067L34.3402 34.7348Z" fill="black"/>
<path d="M34.3402 34.7348C35.5633 34.4752 36.7094 35.3763 36.7468 36.6275C36.7776 37.6615 36.0306 38.5661 35.0111 38.7291L28.4696 39.7751C27.5039 39.9295 26.6319 39.2066 26.6025 38.2272C26.5708 37.1667 27.3085 36.2268 28.3453 36.0067L34.3402 34.7348Z" stroke="black"/>
<path d="M66.951 0.575655C66.4659 0.358108 65.8999 0.472724 65.5404 0.861119C65.3974 1.01579 65.296 1.20499 65.2454 1.41098L65.203 1.58215C65.1658 1.73422 65.1469 1.89086 65.1469 2.04787L65.147 2.70452L65.1467 3.05507C65.1467 3.39367 65.3153 3.71141 65.5946 3.9013C65.6465 3.93656 65.7013 3.9673 65.7587 3.99228L88.3033 13.8016C88.7344 13.9891 89.2313 13.9156 89.5867 13.6118C89.861 13.3773 90.0193 13.0319 90.0193 12.6671L90.0186 12.3491C90.0186 11.4816 89.5094 10.6916 88.7217 10.3383L66.951 0.575655Z" fill="black"/>
<path d="M66.951 0.575655C66.4659 0.358108 65.8999 0.472724 65.5404 0.861119C65.3974 1.01579 65.296 1.20499 65.2454 1.41098L65.203 1.58215C65.1658 1.73422 65.1469 1.89086 65.1469 2.04787L65.147 2.70452L65.1467 3.05507C65.1467 3.39367 65.3153 3.71141 65.5946 3.9013C65.6465 3.93656 65.7013 3.9673 65.7587 3.99228L88.3033 13.8016C88.7344 13.9891 89.2313 13.9156 89.5867 13.6118C89.861 13.3773 90.0193 13.0319 90.0193 12.6671L90.0186 12.3491C90.0186 11.4816 89.5094 10.6916 88.7217 10.3383L66.951 0.575655Z" stroke="black"/>
<path d="M58.2908 10.517C59.2197 10.119 60.2441 10.7998 60.2442 11.8144L60.2445 12.5247L60.2444 12.8805C60.2444 13.0964 60.1167 13.2926 59.92 13.3797L45.0199 19.9767C44.325 20.2843 43.5171 19.9911 43.1815 19.3099C43.1141 19.173 43.0682 19.0258 43.0471 18.8742L43.032 18.7657C42.8996 17.8145 43.4213 16.8877 44.3016 16.5104L58.2908 10.517Z" fill="black"/>
<path d="M58.2908 10.517C59.2197 10.119 60.2441 10.7998 60.2442 11.8144L60.2445 12.5247L60.2444 12.8805C60.2444 13.0964 60.1167 13.2926 59.92 13.3797L45.0199 19.9767C44.325 20.2843 43.5171 19.9911 43.1815 19.3099C43.1141 19.173 43.0682 19.0258 43.0471 18.8742L43.032 18.7657C42.8996 17.8145 43.4213 16.8877 44.3016 16.5104L58.2908 10.517Z" stroke="black"/>
<g clip-path="url(#paint0_diamond_2_852_clip_path)" data-figma-skip-parse="true"><g transform="matrix(0.0235582 -0.0108016 0.172182 0.417319 38.437 13.5714)"><rect x="0" y="0" width="1574.65" height="7.89011" fill="url(#paint0_diamond_2_852)" opacity="1" shape-rendering="crispEdges"/><rect x="0" y="0" width="1574.65" height="7.89011" transform="scale(1 -1)" fill="url(#paint0_diamond_2_852)" opacity="1" shape-rendering="crispEdges"/><rect x="0" y="0" width="1574.65" height="7.89011" transform="scale(-1 1)" fill="url(#paint0_diamond_2_852)" opacity="1" shape-rendering="crispEdges"/><rect x="0" y="0" width="1574.65" height="7.89011" transform="scale(-1)" fill="url(#paint0_diamond_2_852)" opacity="1" shape-rendering="crispEdges"/></g></g><path d="M3.13827 26.7981C3.45969 26.158 3.98668 25.6485 4.62723 25.3584L53.4272 3.26102L57.8227 1.17284C58.9888 0.618882 60.2938 1.46036 60.296 2.76765C60.2931 3.80301 59.6819 4.75045 58.7489 5.16581L4.29165 29.4077C3.24239 29.8748 2.20854 28.8026 2.67155 27.7276L3.13827 26.7981Z" data-figma-gradient-fill="{&#34;type&#34;:&#34;GRADIENT_DIAMOND&#34;,&#34;stops&#34;:[{&#34;color&#34;:{&#34;r&#34;:0.0,&#34;g&#34;:0.15999999642372131,&#34;b&#34;:1.0,&#34;a&#34;:1.0},&#34;position&#34;:0.0},{&#34;color&#34;:{&#34;r&#34;:0.46990764141082764,&#34;g&#34;:0.64133626222610474,&#34;b&#34;:1.0,&#34;a&#34;:1.0},&#34;position&#34;:0.52199095487594604},{&#34;color&#34;:{&#34;r&#34;:0.20760577917098999,&#34;g&#34;:0.54072707891464233,&#34;b&#34;:0.98124289512634277,&#34;a&#34;:1.0},&#34;position&#34;:0.72511965036392212},{&#34;color&#34;:{&#34;r&#34;:0.0083671724423766136,&#34;g&#34;:0.39293956756591797,&#34;b&#34;:0.72290956974029541,&#34;a&#34;:1.0},&#34;position&#34;:1.0}],&#34;stopsVar&#34;:[],&#34;transform&#34;:{&#34;m00&#34;:47.116313934326172,&#34;m01&#34;:344.36389160156250,&#34;m02&#34;:-157.30310058593750,&#34;m10&#34;:-21.603246688842773,&#34;m11&#34;:834.63708496093750,&#34;m12&#34;:-392.94549560546875},&#34;opacity&#34;:1.0,&#34;blendMode&#34;:&#34;NORMAL&#34;,&#34;visible&#34;:true}"/>
<g clip-path="url(#paint1_diamond_2_852_clip_path)" data-figma-skip-parse="true"><g transform="matrix(5.79148e-09 0.0170795 -0.212242 7.91684e-08 18.273 37.8788)"><rect x="0" y="0" width="1908.11" height="8.25262" fill="url(#paint1_diamond_2_852)" opacity="1" shape-rendering="crispEdges"/><rect x="0" y="0" width="1908.11" height="8.25262" transform="scale(1 -1)" fill="url(#paint1_diamond_2_852)" opacity="1" shape-rendering="crispEdges"/><rect x="0" y="0" width="1908.11" height="8.25262" transform="scale(-1 1)" fill="url(#paint1_diamond_2_852)" opacity="1" shape-rendering="crispEdges"/><rect x="0" y="0" width="1908.11" height="8.25262" transform="scale(-1)" fill="url(#paint1_diamond_2_852)" opacity="1" shape-rendering="crispEdges"/></g></g><path d="M16.5215 9.13257C16.5215 7.63049 18.2881 6.82499 19.4219 7.8103C19.8046 8.14296 20.0244 8.62546 20.0244 9.13257L20.0244 51.9138C20.0244 52.881 19.2406 53.6655 18.2734 53.6658C17.3061 53.6658 16.5215 52.8812 16.5215 51.9138L16.5215 9.13257Z" data-figma-gradient-fill="{&#34;type&#34;:&#34;GRADIENT_DIAMOND&#34;,&#34;stops&#34;:[{&#34;color&#34;:{&#34;r&#34;:0.18383626639842987,&#34;g&#34;:0.42113229632377625,&#34;b&#34;:0.77707618474960327,&#34;a&#34;:1.0},&#34;position&#34;:0.0},{&#34;color&#34;:{&#34;r&#34;:0.13319803774356842,&#34;g&#34;:0.38277134299278259,&#34;b&#34;:0.85482811927795410,&#34;a&#34;:1.0},&#34;position&#34;:0.28761175274848938},{&#34;color&#34;:{&#34;r&#34;:0.19350089132785797,&#34;g&#34;:0.44016012549400330,&#34;b&#34;:0.95207619667053223,&#34;a&#34;:1.0},&#34;position&#34;:0.41782242059707642},{&#34;color&#34;:{&#34;r&#34;:0.25492969155311584,&#34;g&#34;:0.39455184340476990,&#34;b&#34;:0.88957619667053223,&#34;a&#34;:1.0},&#34;position&#34;:1.0}],&#34;stopsVar&#34;:[],&#34;transform&#34;:{&#34;m00&#34;:1.1582969818846323e-05,&#34;m01&#34;:-424.48495483398438,&#34;m02&#34;:230.51551818847656,&#34;m10&#34;:34.159000396728516,&#34;m11&#34;:0.00015833678480703384,&#34;m12&#34;:20.799192428588867},&#34;opacity&#34;:1.0,&#34;blendMode&#34;:&#34;NORMAL&#34;,&#34;visible&#34;:true}"/>
<path d="M16.5215 9.13257C16.5215 7.63049 18.2881 6.82499 19.4219 7.8103C19.8046 8.14296 20.0244 8.62546 20.0244 9.13257L20.0244 51.9138C20.0244 52.881 19.2406 53.6655 18.2734 53.6658C17.3061 53.6658 16.5215 52.8812 16.5215 51.9138L16.5215 9.13257Z" stroke="#2725A4"/>
<path d="M10.518 67.114C10.518 66.162 10.7373 65.308 11.176 64.552C11.624 63.796 12.226 63.208 12.982 62.788C13.7473 62.3587 14.5827 62.144 15.488 62.144C16.524 62.144 17.4433 62.4007 18.246 62.914C19.058 63.418 19.646 64.1367 20.01 65.07H18.092C17.84 64.5567 17.49 64.174 17.042 63.922C16.594 63.67 16.076 63.544 15.488 63.544C14.844 63.544 14.27 63.6887 13.766 63.978C13.262 64.2673 12.8653 64.6827 12.576 65.224C12.296 65.7653 12.156 66.3953 12.156 67.114C12.156 67.8327 12.296 68.4627 12.576 69.004C12.8653 69.5453 13.262 69.9653 13.766 70.264C14.27 70.5533 14.844 70.698 15.488 70.698C16.076 70.698 16.594 70.572 17.042 70.32C17.49 70.068 17.84 69.6853 18.092 69.172H20.01C19.646 70.1053 19.058 70.824 18.246 71.328C17.4433 71.832 16.524 72.084 15.488 72.084C14.5733 72.084 13.738 71.874 12.982 71.454C12.226 71.0247 11.624 70.432 11.176 69.676C10.7373 68.92 10.518 68.066 10.518 67.114ZM25.0841 72.126C24.3561 72.126 23.6981 71.9627 23.1101 71.636C22.5221 71.3 22.0601 70.8333 21.7241 70.236C21.3881 69.6293 21.2201 68.9293 21.2201 68.136C21.2201 67.352 21.3928 66.6567 21.7381 66.05C22.0835 65.4433 22.5548 64.9767 23.1521 64.65C23.7495 64.3233 24.4168 64.16 25.1541 64.16C25.8915 64.16 26.5588 64.3233 27.1561 64.65C27.7535 64.9767 28.2248 65.4433 28.5701 66.05C28.9155 66.6567 29.0881 67.352 29.0881 68.136C29.0881 68.92 28.9108 69.6153 28.5561 70.222C28.2015 70.8287 27.7161 71.3 27.1001 71.636C26.4935 71.9627 25.8215 72.126 25.0841 72.126ZM25.0841 70.74C25.4948 70.74 25.8775 70.642 26.2321 70.446C26.5961 70.25 26.8901 69.956 27.1141 69.564C27.3381 69.172 27.4501 68.696 27.4501 68.136C27.4501 67.576 27.3428 67.1047 27.1281 66.722C26.9135 66.33 26.6288 66.036 26.2741 65.84C25.9195 65.644 25.5368 65.546 25.1261 65.546C24.7155 65.546 24.3328 65.644 23.9781 65.84C23.6328 66.036 23.3575 66.33 23.1521 66.722C22.9468 67.1047 22.8441 67.576 22.8441 68.136C22.8441 68.9667 23.0541 69.6107 23.4741 70.068C23.9035 70.516 24.4401 70.74 25.0841 70.74ZM34.4179 64.16C35.0245 64.16 35.5659 64.286 36.0419 64.538C36.5272 64.79 36.9052 65.1633 37.1759 65.658C37.4465 66.1527 37.5819 66.75 37.5819 67.45V72H35.9999V67.688C35.9999 66.9973 35.8272 66.47 35.4819 66.106C35.1365 65.7327 34.6652 65.546 34.0679 65.546C33.4705 65.546 32.9945 65.7327 32.6399 66.106C32.2945 66.47 32.1219 66.9973 32.1219 67.688V72H30.5259V64.286H32.1219V65.168C32.3832 64.8507 32.7145 64.6033 33.1159 64.426C33.5265 64.2487 33.9605 64.16 34.4179 64.16ZM38.9457 68.136C38.9457 67.3427 39.1043 66.6473 39.4217 66.05C39.7483 65.4433 40.1963 64.9767 40.7657 64.65C41.335 64.3233 41.9883 64.16 42.7257 64.16C43.659 64.16 44.429 64.384 45.0357 64.832C45.6517 65.2707 46.067 65.9007 46.2817 66.722H44.5597C44.4197 66.3393 44.1957 66.0407 43.8877 65.826C43.5797 65.6113 43.1923 65.504 42.7257 65.504C42.0723 65.504 41.5497 65.7373 41.1577 66.204C40.775 66.6613 40.5837 67.3053 40.5837 68.136C40.5837 68.9667 40.775 69.6153 41.1577 70.082C41.5497 70.5487 42.0723 70.782 42.7257 70.782C43.6497 70.782 44.261 70.376 44.5597 69.564H46.2817C46.0577 70.348 45.6377 70.9733 45.0217 71.44C44.4057 71.8973 43.6403 72.126 42.7257 72.126C41.9883 72.126 41.335 71.9627 40.7657 71.636C40.1963 71.3 39.7483 70.8333 39.4217 70.236C39.1043 69.6293 38.9457 68.9293 38.9457 68.136ZM54.8022 67.954C54.8022 68.2433 54.7835 68.5047 54.7462 68.738H48.8522C48.8989 69.354 49.1275 69.8487 49.5382 70.222C49.9489 70.5953 50.4529 70.782 51.0502 70.782C51.9089 70.782 52.5155 70.4227 52.8702 69.704H54.5922C54.3589 70.4133 53.9342 70.9967 53.3182 71.454C52.7115 71.902 51.9555 72.126 51.0502 72.126C50.3129 72.126 49.6502 71.9627 49.0622 71.636C48.4835 71.3 48.0262 70.8333 47.6902 70.236C47.3635 69.6293 47.2002 68.9293 47.2002 68.136C47.2002 67.3427 47.3589 66.6473 47.6762 66.05C48.0029 65.4433 48.4555 64.9767 49.0342 64.65C49.6222 64.3233 50.2942 64.16 51.0502 64.16C51.7782 64.16 52.4269 64.3187 52.9962 64.636C53.5655 64.9533 54.0089 65.4013 54.3262 65.98C54.6435 66.5493 54.8022 67.2073 54.8022 67.954ZM53.1362 67.45C53.1269 66.862 52.9169 66.3907 52.5062 66.036C52.0955 65.6813 51.5869 65.504 50.9802 65.504C50.4295 65.504 49.9582 65.6813 49.5662 66.036C49.1742 66.3813 48.9409 66.8527 48.8662 67.45H53.1362ZM57.8288 65.42C58.0995 65.0653 58.4681 64.7667 58.9348 64.524C59.4015 64.2813 59.9288 64.16 60.5168 64.16C61.1888 64.16 61.8001 64.328 62.3508 64.664C62.9108 64.9907 63.3495 65.4527 63.6668 66.05C63.9841 66.6473 64.1428 67.3333 64.1428 68.108C64.1428 68.8827 63.9841 69.578 63.6668 70.194C63.3495 70.8007 62.9108 71.2767 62.3508 71.622C61.8001 71.958 61.1888 72.126 60.5168 72.126C59.9288 72.126 59.4061 72.0093 58.9488 71.776C58.4915 71.5333 58.1181 71.2347 57.8288 70.88V75.668H56.2328V64.286H57.8288V65.42ZM62.5188 68.108C62.5188 67.576 62.4068 67.1187 62.1828 66.736C61.9681 66.344 61.6788 66.05 61.3148 65.854C60.9601 65.6487 60.5775 65.546 60.1668 65.546C59.7655 65.546 59.3828 65.6487 59.0188 65.854C58.6641 66.0593 58.3748 66.358 58.1508 66.75C57.9361 67.142 57.8288 67.604 57.8288 68.136C57.8288 68.668 57.9361 69.1347 58.1508 69.536C58.3748 69.928 58.6641 70.2267 59.0188 70.432C59.3828 70.6373 59.7655 70.74 60.1668 70.74C60.5775 70.74 60.9601 70.6373 61.3148 70.432C61.6788 70.2173 61.9681 69.9093 62.1828 69.508C62.4068 69.1067 62.5188 68.64 62.5188 68.108ZM67.4431 65.588V69.858C67.4431 70.1473 67.5084 70.3573 67.6391 70.488C67.7791 70.6093 68.0124 70.67 68.3391 70.67H69.3191V72H68.0591C67.3404 72 66.7898 71.832 66.4071 71.496C66.0244 71.16 65.8331 70.614 65.8331 69.858V65.588H64.9231V64.286H65.8331V62.368H67.4431V64.286H69.3191V65.588H67.4431ZM80.0688 66.26V67.604H74.3148V66.26H80.0688ZM91.419 62.27V63.572H87.289V66.442H90.509V67.744H87.289V72H85.693V62.27H91.419ZM99.828 67.954C99.828 68.2433 99.8094 68.5047 99.772 68.738H93.878C93.9247 69.354 94.1534 69.8487 94.564 70.222C94.9747 70.5953 95.4787 70.782 96.076 70.782C96.9347 70.782 97.5414 70.4227 97.896 69.704H99.618C99.3847 70.4133 98.96 70.9967 98.344 71.454C97.7374 71.902 96.9814 72.126 96.076 72.126C95.3387 72.126 94.676 71.9627 94.088 71.636C93.5094 71.3 93.052 70.8333 92.716 70.236C92.3894 69.6293 92.226 68.9293 92.226 68.136C92.226 67.3427 92.3847 66.6473 92.702 66.05C93.0287 65.4433 93.4814 64.9767 94.06 64.65C94.648 64.3233 95.32 64.16 96.076 64.16C96.804 64.16 97.4527 64.3187 98.022 64.636C98.5914 64.9533 99.0347 65.4013 99.352 65.98C99.6694 66.5493 99.828 67.2073 99.828 67.954ZM98.162 67.45C98.1527 66.862 97.9427 66.3907 97.532 66.036C97.1214 65.6813 96.6127 65.504 96.006 65.504C95.4554 65.504 94.984 65.6813 94.592 66.036C94.2 66.3813 93.9667 66.8527 93.892 67.45H98.162ZM105.151 64.16C105.757 64.16 106.299 64.286 106.775 64.538C107.26 64.79 107.638 65.1633 107.909 65.658C108.179 66.1527 108.315 66.75 108.315 67.45V72H106.733V67.688C106.733 66.9973 106.56 66.47 106.215 66.106C105.869 65.7327 105.398 65.546 104.801 65.546C104.203 65.546 103.727 65.7327 103.373 66.106C103.027 66.47 102.855 66.9973 102.855 67.688V72H101.259V64.286H102.855V65.168C103.116 64.8507 103.447 64.6033 103.849 64.426C104.259 64.2487 104.693 64.16 105.151 64.16ZM117.28 67.954C117.28 68.2433 117.262 68.5047 117.224 68.738H111.33C111.377 69.354 111.606 69.8487 112.016 70.222C112.427 70.5953 112.931 70.782 113.528 70.782C114.387 70.782 114.994 70.4227 115.348 69.704H117.07C116.837 70.4133 116.412 70.9967 115.796 71.454C115.19 71.902 114.434 72.126 113.528 72.126C112.791 72.126 112.128 71.9627 111.54 71.636C110.962 71.3 110.504 70.8333 110.168 70.236C109.842 69.6293 109.678 68.9293 109.678 68.136C109.678 67.3427 109.837 66.6473 110.154 66.05C110.481 65.4433 110.934 64.9767 111.512 64.65C112.1 64.3233 112.772 64.16 113.528 64.16C114.256 64.16 114.905 64.3187 115.474 64.636C116.044 64.9533 116.487 65.4013 116.804 65.98C117.122 66.5493 117.28 67.2073 117.28 67.954ZM115.614 67.45C115.605 66.862 115.395 66.3907 114.984 66.036C114.574 65.6813 114.065 65.504 113.458 65.504C112.908 65.504 112.436 65.6813 112.044 66.036C111.652 66.3813 111.419 66.8527 111.344 67.45H115.614ZM113.486 62.536L111.484 63.74V62.494L113.486 61.332L115.488 62.494V63.74L113.486 62.536ZM120.573 65.588V69.858C120.573 70.1473 120.638 70.3573 120.769 70.488C120.909 70.6093 121.142 70.67 121.469 70.67H122.449V72H121.189C120.47 72 119.92 71.832 119.537 71.496C119.154 71.16 118.963 70.614 118.963 69.858V65.588H118.053V64.286H118.963V62.368H120.573V64.286H122.449V65.588H120.573ZM125.376 65.406C125.609 65.014 125.917 64.7107 126.3 64.496C126.692 64.272 127.154 64.16 127.686 64.16V65.812H127.28C126.655 65.812 126.179 65.9707 125.852 66.288C125.535 66.6053 125.376 67.156 125.376 67.94V72H123.78V64.286H125.376V65.406ZM136.083 67.954C136.083 68.2433 136.064 68.5047 136.027 68.738H130.133C130.18 69.354 130.408 69.8487 130.819 70.222C131.23 70.5953 131.734 70.782 132.331 70.782C133.19 70.782 133.796 70.4227 134.151 69.704H135.873C135.64 70.4133 135.215 70.9967 134.599 71.454C133.992 71.902 133.236 72.126 132.331 72.126C131.594 72.126 130.931 71.9627 130.343 71.636C129.764 71.3 129.307 70.8333 128.971 70.236C128.644 69.6293 128.481 68.9293 128.481 68.136C128.481 67.3427 128.64 66.6473 128.957 66.05C129.284 65.4433 129.736 64.9767 130.315 64.65C130.903 64.3233 131.575 64.16 132.331 64.16C133.059 64.16 133.708 64.3187 134.277 64.636C134.846 64.9533 135.29 65.4013 135.607 65.98C135.924 66.5493 136.083 67.2073 136.083 67.954ZM134.417 67.45C134.408 66.862 134.198 66.3907 133.787 66.036C133.376 65.6813 132.868 65.504 132.261 65.504C131.71 65.504 131.239 65.6813 130.847 66.036C130.455 66.3813 130.222 66.8527 130.147 67.45H134.417Z" fill="black"/>
<path d="M177.046 28.946L172.561 45H168.766L165.753 33.569L162.602 45L158.83 45.023L154.506 28.946H157.956L160.785 41.412L164.051 28.946H167.639L170.721 41.343L173.573 28.946H177.046ZM180.552 30.74C179.984 30.74 179.509 30.5637 179.126 30.211C178.758 29.843 178.574 29.3907 178.574 28.854C178.574 28.3173 178.758 27.8727 179.126 27.52C179.509 27.152 179.984 26.968 180.552 26.968C181.119 26.968 181.587 27.152 181.955 27.52C182.338 27.8727 182.53 28.3173 182.53 28.854C182.53 29.3907 182.338 29.843 181.955 30.211C181.587 30.5637 181.119 30.74 180.552 30.74ZM182.139 32.258V45H178.919V32.258H182.139ZM192.151 32.074C193.669 32.074 194.896 32.557 195.831 33.523C196.766 34.4737 197.234 35.8077 197.234 37.525V45H194.014V37.962C194.014 36.95 193.761 36.1757 193.255 35.639C192.749 35.087 192.059 34.811 191.185 34.811C190.296 34.811 189.59 35.087 189.069 35.639C188.563 36.1757 188.31 36.95 188.31 37.962V45H185.09V32.258H188.31V33.845C188.739 33.293 189.284 32.8637 189.943 32.557C190.618 32.235 191.354 32.074 192.151 32.074ZM199.238 38.583C199.238 37.295 199.491 36.1527 199.997 35.156C200.518 34.1593 201.224 33.3927 202.113 32.856C203.002 32.3193 203.991 32.051 205.08 32.051C205.908 32.051 206.698 32.235 207.449 32.603C208.2 32.9557 208.798 33.431 209.243 34.029V27.98H212.509V45H209.243V43.114C208.844 43.7427 208.285 44.2487 207.564 44.632C206.843 45.0153 206.008 45.207 205.057 45.207C203.984 45.207 203.002 44.931 202.113 44.379C201.224 43.827 200.518 43.0527 199.997 42.056C199.491 41.044 199.238 39.8863 199.238 38.583ZM209.266 38.629C209.266 37.847 209.113 37.18 208.806 36.628C208.499 36.0607 208.085 35.6313 207.564 35.34C207.043 35.0333 206.483 34.88 205.885 34.88C205.287 34.88 204.735 35.0257 204.229 35.317C203.723 35.6083 203.309 36.0377 202.987 36.605C202.68 37.157 202.527 37.8163 202.527 38.583C202.527 39.3497 202.68 40.0243 202.987 40.607C203.309 41.1743 203.723 41.6113 204.229 41.918C204.75 42.2247 205.302 42.378 205.885 42.378C206.483 42.378 207.043 42.2323 207.564 41.941C208.085 41.6343 208.499 41.205 208.806 40.653C209.113 40.0857 209.266 39.411 209.266 38.629ZM221.082 45.207C219.855 45.207 218.751 44.9387 217.77 44.402C216.789 43.85 216.014 43.0757 215.447 42.079C214.895 41.0823 214.619 39.9323 214.619 38.629C214.619 37.3257 214.903 36.1757 215.47 35.179C216.053 34.1823 216.842 33.4157 217.839 32.879C218.836 32.327 219.947 32.051 221.174 32.051C222.401 32.051 223.512 32.327 224.509 32.879C225.506 33.4157 226.288 34.1823 226.855 35.179C227.438 36.1757 227.729 37.3257 227.729 38.629C227.729 39.9323 227.43 41.0823 226.832 42.079C226.249 43.0757 225.452 43.85 224.44 44.402C223.443 44.9387 222.324 45.207 221.082 45.207ZM221.082 42.401C221.665 42.401 222.209 42.263 222.715 41.987C223.236 41.6957 223.65 41.2663 223.957 40.699C224.264 40.1317 224.417 39.4417 224.417 38.629C224.417 37.4177 224.095 36.49 223.451 35.846C222.822 35.1867 222.048 34.857 221.128 34.857C220.208 34.857 219.434 35.1867 218.805 35.846C218.192 36.49 217.885 37.4177 217.885 38.629C217.885 39.8403 218.184 40.7757 218.782 41.435C219.395 42.079 220.162 42.401 221.082 42.401ZM247.525 32.258L243.799 45H240.326L238.003 36.099L235.68 45H232.184L228.435 32.258H231.701L233.955 41.964L236.393 32.258H239.797L242.189 41.941L244.443 32.258H247.525ZM253.913 45.207C252.87 45.207 251.935 45.023 251.107 44.655C250.279 44.2717 249.62 43.758 249.129 43.114C248.654 42.47 248.393 41.757 248.347 40.975H251.59C251.651 41.4657 251.889 41.872 252.303 42.194C252.732 42.516 253.261 42.677 253.89 42.677C254.503 42.677 254.979 42.5543 255.316 42.309C255.669 42.0637 255.845 41.7493 255.845 41.366C255.845 40.952 255.63 40.6453 255.201 40.446C254.787 40.2313 254.12 40.0013 253.2 39.756C252.249 39.526 251.467 39.2883 250.854 39.043C250.256 38.7977 249.735 38.422 249.29 37.916C248.861 37.41 248.646 36.7277 248.646 35.869C248.646 35.1637 248.845 34.5197 249.244 33.937C249.658 33.3543 250.241 32.8943 250.992 32.557C251.759 32.2197 252.656 32.051 253.683 32.051C255.201 32.051 256.412 32.4343 257.317 33.201C258.222 33.9523 258.72 34.972 258.812 36.26H255.73C255.684 35.754 255.469 35.3553 255.086 35.064C254.718 34.7573 254.22 34.604 253.591 34.604C253.008 34.604 252.556 34.7113 252.234 34.926C251.927 35.1407 251.774 35.4397 251.774 35.823C251.774 36.2523 251.989 36.582 252.418 36.812C252.847 37.0267 253.514 37.249 254.419 37.479C255.339 37.709 256.098 37.9467 256.696 38.192C257.294 38.4373 257.808 38.8207 258.237 39.342C258.682 39.848 258.912 40.5227 258.927 41.366C258.927 42.102 258.72 42.7613 258.306 43.344C257.907 43.9267 257.325 44.3867 256.558 44.724C255.807 45.046 254.925 45.207 253.913 45.207ZM265.763 38.629C265.763 37.3103 266.031 36.1603 266.568 35.179C267.104 34.1823 267.848 33.4157 268.799 32.879C269.749 32.327 270.838 32.051 272.065 32.051C273.644 32.051 274.947 32.4497 275.975 33.247C277.017 34.029 277.715 35.133 278.068 36.559H274.595C274.411 36.007 274.096 35.5777 273.652 35.271C273.222 34.949 272.686 34.788 272.042 34.788C271.122 34.788 270.393 35.1253 269.857 35.8C269.32 36.4593 269.052 37.4023 269.052 38.629C269.052 39.8403 269.32 40.7833 269.857 41.458C270.393 42.1173 271.122 42.447 272.042 42.447C273.345 42.447 274.196 41.8643 274.595 40.699H278.068C277.715 42.079 277.017 43.1753 275.975 43.988C274.932 44.8007 273.629 45.207 272.065 45.207C270.838 45.207 269.749 44.9387 268.799 44.402C267.848 43.85 267.104 43.0833 266.568 42.102C266.031 41.1053 265.763 39.9477 265.763 38.629ZM285.855 45.207C284.628 45.207 283.524 44.9387 282.543 44.402C281.561 43.85 280.787 43.0757 280.22 42.079C279.668 41.0823 279.392 39.9323 279.392 38.629C279.392 37.3257 279.675 36.1757 280.243 35.179C280.825 34.1823 281.615 33.4157 282.612 32.879C283.608 32.327 284.72 32.051 285.947 32.051C287.173 32.051 288.285 32.327 289.282 32.879C290.278 33.4157 291.06 34.1823 291.628 35.179C292.21 36.1757 292.502 37.3257 292.502 38.629C292.502 39.9323 292.203 41.0823 291.605 42.079C291.022 43.0757 290.225 43.85 289.213 44.402C288.216 44.9387 287.097 45.207 285.855 45.207ZM285.855 42.401C286.437 42.401 286.982 42.263 287.488 41.987C288.009 41.6957 288.423 41.2663 288.73 40.699C289.036 40.1317 289.19 39.4417 289.19 38.629C289.19 37.4177 288.868 36.49 288.224 35.846C287.595 35.1867 286.821 34.857 285.901 34.857C284.981 34.857 284.206 35.1867 283.578 35.846C282.964 36.49 282.658 37.4177 282.658 38.629C282.658 39.8403 282.957 40.7757 283.555 41.435C284.168 42.079 284.935 42.401 285.855 42.401ZM301.695 32.074C303.213 32.074 304.439 32.557 305.375 33.523C306.31 34.4737 306.778 35.8077 306.778 37.525V45H303.558V37.962C303.558 36.95 303.305 36.1757 302.799 35.639C302.293 35.087 301.603 34.811 300.729 34.811C299.839 34.811 299.134 35.087 298.613 35.639C298.107 36.1757 297.854 36.95 297.854 37.962V45H294.634V32.258H297.854V33.845C298.283 33.293 298.827 32.8637 299.487 32.557C300.161 32.235 300.897 32.074 301.695 32.074ZM315.452 34.903H313.221V45H309.955V34.903H308.506V32.258H309.955V31.614C309.955 30.05 310.399 28.9 311.289 28.164C312.178 27.428 313.52 27.083 315.314 27.129V29.843C314.532 29.8277 313.987 29.958 313.681 30.234C313.374 30.51 313.221 31.0083 313.221 31.729V32.258H315.452V34.903ZM318.941 30.74C318.374 30.74 317.899 30.5637 317.515 30.211C317.147 29.843 316.963 29.3907 316.963 28.854C316.963 28.3173 317.147 27.8727 317.515 27.52C317.899 27.152 318.374 26.968 318.941 26.968C319.509 26.968 319.976 27.152 320.344 27.52C320.728 27.8727 320.919 28.3173 320.919 28.854C320.919 29.3907 320.728 29.843 320.344 30.211C319.976 30.5637 319.509 30.74 318.941 30.74ZM320.528 32.258V45H317.308V32.258H320.528ZM328.471 32.051C329.421 32.051 330.257 32.2427 330.978 32.626C331.698 32.994 332.266 33.477 332.68 34.075V32.258H335.923V45.092C335.923 46.2727 335.685 47.323 335.21 48.243C334.734 49.1783 334.021 49.9143 333.071 50.451C332.12 51.003 330.97 51.279 329.621 51.279C327.811 51.279 326.324 50.8573 325.159 50.014C324.009 49.1707 323.357 48.0207 323.204 46.564H326.401C326.569 47.1467 326.93 47.6067 327.482 47.944C328.049 48.2967 328.731 48.473 329.529 48.473C330.464 48.473 331.223 48.1893 331.806 47.622C332.388 47.07 332.68 46.2267 332.68 45.092V43.114C332.266 43.712 331.691 44.2103 330.955 44.609C330.234 45.0077 329.406 45.207 328.471 45.207C327.397 45.207 326.416 44.931 325.527 44.379C324.637 43.827 323.932 43.0527 323.411 42.056C322.905 41.044 322.652 39.8863 322.652 38.583C322.652 37.295 322.905 36.1527 323.411 35.156C323.932 34.1593 324.63 33.3927 325.504 32.856C326.393 32.3193 327.382 32.051 328.471 32.051ZM332.68 38.629C332.68 37.847 332.526 37.18 332.22 36.628C331.913 36.0607 331.499 35.6313 330.978 35.34C330.456 35.0333 329.897 34.88 329.299 34.88C328.701 34.88 328.149 35.0257 327.643 35.317C327.137 35.6083 326.723 36.0377 326.401 36.605C326.094 37.157 325.941 37.8163 325.941 38.583C325.941 39.3497 326.094 40.0243 326.401 40.607C326.723 41.1743 327.137 41.6113 327.643 41.918C328.164 42.2247 328.716 42.378 329.299 42.378C329.897 42.378 330.456 42.2323 330.978 41.941C331.499 41.6343 331.913 41.205 332.22 40.653C332.526 40.0857 332.68 39.411 332.68 38.629ZM350.867 32.258V45H347.624V43.39C347.21 43.942 346.665 44.379 345.991 44.701C345.331 45.0077 344.611 45.161 343.829 45.161C342.832 45.161 341.95 44.954 341.184 44.54C340.417 44.1107 339.811 43.4897 339.367 42.677C338.937 41.849 338.723 40.8677 338.723 39.733V32.258H341.943V39.273C341.943 40.285 342.196 41.067 342.702 41.619C343.208 42.1557 343.898 42.424 344.772 42.424C345.661 42.424 346.359 42.1557 346.865 41.619C347.371 41.067 347.624 40.285 347.624 39.273V32.258H350.867ZM357.034 34.236C357.448 33.5613 357.984 33.0323 358.644 32.649C359.318 32.2657 360.085 32.074 360.944 32.074V35.455H360.093C359.081 35.455 358.314 35.6927 357.793 36.168C357.287 36.6433 357.034 37.4713 357.034 38.652V45H353.814V32.258H357.034V34.236ZM362.055 38.583C362.055 37.295 362.308 36.1527 362.814 35.156C363.335 34.1593 364.033 33.3927 364.907 32.856C365.796 32.3193 366.785 32.051 367.874 32.051C368.824 32.051 369.652 32.2427 370.358 32.626C371.078 33.0093 371.653 33.4923 372.083 34.075V32.258H375.326V45H372.083V43.137C371.669 43.735 371.094 44.2333 370.358 44.632C369.637 45.0153 368.801 45.207 367.851 45.207C366.777 45.207 365.796 44.931 364.907 44.379C364.033 43.827 363.335 43.0527 362.814 42.056C362.308 41.044 362.055 39.8863 362.055 38.583ZM372.083 38.629C372.083 37.847 371.929 37.18 371.623 36.628C371.316 36.0607 370.902 35.6313 370.381 35.34C369.859 35.0333 369.3 34.88 368.702 34.88C368.104 34.88 367.552 35.0257 367.046 35.317C366.54 35.6083 366.126 36.0377 365.804 36.605C365.497 37.157 365.344 37.8163 365.344 38.583C365.344 39.3497 365.497 40.0243 365.804 40.607C366.126 41.1743 366.54 41.6113 367.046 41.918C367.567 42.2247 368.119 42.378 368.702 42.378C369.3 42.378 369.859 42.2323 370.381 41.941C370.902 41.6343 371.316 41.205 371.623 40.653C371.929 40.0857 372.083 39.411 372.083 38.629ZM381.989 34.903V41.067C381.989 41.4963 382.089 41.8107 382.288 42.01C382.503 42.194 382.856 42.286 383.346 42.286H384.841V45H382.817C380.103 45 378.746 43.6813 378.746 41.044V34.903H377.228V32.258H378.746V29.107H381.989V32.258H384.841V34.903H381.989ZM392.585 45.207C391.359 45.207 390.255 44.9387 389.273 44.402C388.292 43.85 387.518 43.0757 386.95 42.079C386.398 41.0823 386.122 39.9323 386.122 38.629C386.122 37.3257 386.406 36.1757 386.973 35.179C387.556 34.1823 388.346 33.4157 389.342 32.879C390.339 32.327 391.451 32.051 392.677 32.051C393.904 32.051 395.016 32.327 396.012 32.879C397.009 33.4157 397.791 34.1823 398.358 35.179C398.941 36.1757 399.232 37.3257 399.232 38.629C399.232 39.9323 398.933 41.0823 398.335 42.079C397.753 43.0757 396.955 43.85 395.943 44.402C394.947 44.9387 393.827 45.207 392.585 45.207ZM392.585 42.401C393.168 42.401 393.712 42.263 394.218 41.987C394.74 41.6957 395.154 41.2663 395.46 40.699C395.767 40.1317 395.92 39.4417 395.92 38.629C395.92 37.4177 395.598 36.49 394.954 35.846C394.326 35.1867 393.551 34.857 392.631 34.857C391.711 34.857 390.937 35.1867 390.308 35.846C389.695 36.49 389.388 37.4177 389.388 38.629C389.388 39.8403 389.687 40.7757 390.285 41.435C390.899 42.079 391.665 42.401 392.585 42.401ZM404.584 34.236C404.998 33.5613 405.535 33.0323 406.194 32.649C406.869 32.2657 407.636 32.074 408.494 32.074V35.455H407.643C406.631 35.455 405.865 35.6927 405.343 36.168C404.837 36.6433 404.584 37.4713 404.584 38.652V45H401.364V32.258H404.584V34.236Z" fill="black"/>
<defs>
<clipPath id="paint0_diamond_2_852_clip_path"><path d="M3.13827 26.7981C3.45969 26.158 3.98668 25.6485 4.62723 25.3584L53.4272 3.26102L57.8227 1.17284C58.9888 0.618882 60.2938 1.46036 60.296 2.76765C60.2931 3.80301 59.6819 4.75045 58.7489 5.16581L4.29165 29.4077C3.24239 29.8748 2.20854 28.8026 2.67155 27.7276L3.13827 26.7981Z"/></clipPath><clipPath id="paint1_diamond_2_852_clip_path"><path d="M16.5215 9.13257C16.5215 7.63049 18.2881 6.82499 19.4219 7.8103C19.8046 8.14296 20.0244 8.62546 20.0244 9.13257L20.0244 51.9138C20.0244 52.881 19.2406 53.6655 18.2734 53.6658C17.3061 53.6658 16.5215 52.8812 16.5215 51.9138L16.5215 9.13257Z"/></clipPath><linearGradient id="paint0_diamond_2_852" x1="0" y1="0" x2="500" y2="500" gradientUnits="userSpaceOnUse">
<stop stop-color="#0029FF"/>
<stop offset="0.521991" stop-color="#78A4FF"/>
<stop offset="0.72512" stop-color="#358AFA"/>
<stop offset="1" stop-color="#0264B8"/>
</linearGradient>
<linearGradient id="paint1_diamond_2_852" x1="0" y1="0" x2="500" y2="500" gradientUnits="userSpaceOnUse">
<stop stop-color="#2F6BC6"/>
<stop offset="0.287612" stop-color="#2262DA"/>
<stop offset="0.417822" stop-color="#3170F3"/>
<stop offset="1" stop-color="#4165E3"/>
</linearGradient>
</defs>
</svg>
