<svg width="133" height="54" viewBox="0 0 133 54" fill="none" xmlns="http://www.w3.org/2000/svg">
<path d="M128.9 41.71C128.901 40.7637 129.853 40.1145 130.734 40.46C131.243 40.6597 131.58 41.1478 131.587 41.6943L131.717 52.5195C131.726 53.3036 131.093 53.9443 130.309 53.9443C129.531 53.9443 128.9 53.3138 128.9 52.5361V41.71Z" fill="black"/>
<path d="M128.9 41.71C128.901 40.7637 129.853 40.1145 130.734 40.46C131.243 40.6597 131.58 41.1478 131.587 41.6943L131.717 52.5195C131.726 53.3036 131.093 53.9443 130.309 53.9443C129.531 53.9443 128.9 53.3138 128.9 52.5361V41.71Z" stroke="black"/>
<path d="M34.6367 22.8096C34.6368 21.7396 35.207 20.7503 36.1328 20.2139L36.2129 20.167C37.0375 19.6197 38.1396 20.2115 38.1396 21.2012V51.8496C38.1396 52.8168 37.3558 53.6013 36.3887 53.6016C35.4213 53.6016 34.6367 52.817 34.6367 51.8496V22.8096Z" fill="black"/>
<path d="M34.6367 22.8096C34.6368 21.7396 35.207 20.7503 36.1328 20.2139L36.2129 20.167C37.0375 19.6197 38.1396 20.2115 38.1396 21.2012V51.8496C38.1396 52.8168 37.3558 53.6013 36.3887 53.6016C35.4213 53.6016 34.6367 52.817 34.6367 51.8496V22.8096Z" stroke="black"/>
<path d="M25.1777 26.999C25.1777 25.9157 25.7872 24.9243 26.7539 24.4355C27.6096 23.9401 28.6807 24.5581 28.6807 25.5469V51.8496C28.6807 52.8168 27.8968 53.6013 26.9297 53.6016C25.9623 53.6016 25.1777 52.817 25.1777 51.8496V26.999Z" fill="black"/>
<path d="M25.1777 26.999C25.1777 25.9157 25.7872 24.9243 26.7539 24.4355C27.6096 23.9401 28.6807 24.5581 28.6807 25.5469V51.8496C28.6807 52.8168 27.8968 53.6013 26.9297 53.6016C25.9623 53.6016 25.1777 52.817 25.1777 51.8496V26.999Z" stroke="black"/>
<rect x="42.7285" y="53.5938" width="36.5594" height="3.50307" rx="1.75154" transform="rotate(-90 42.7285 53.5938)" fill="black"/>
<rect x="42.7285" y="53.5938" width="36.5594" height="3.50307" rx="1.75154" transform="rotate(-90 42.7285 53.5938)" stroke="black"/>
<rect x="56.7402" y="53.5938" width="42.468" height="3.50307" rx="1.75154" transform="rotate(-90 56.7402 53.5938)" fill="black"/>
<rect x="56.7402" y="53.5938" width="42.468" height="3.50307" rx="1.75154" transform="rotate(-90 56.7402 53.5938)" stroke="black"/>
<rect x="65.1484" y="53.5938" width="52.0694" height="3.50307" rx="1.75154" transform="rotate(-90 65.1484 53.5938)" fill="black"/>
<rect x="65.1484" y="53.5938" width="52.0694" height="3.50307" rx="1.75154" transform="rotate(-90 65.1484 53.5938)" stroke="black"/>
<rect x="86.5156" y="53.5938" width="42.468" height="3.50307" rx="1.75154" transform="rotate(-90 86.5156 53.5938)" fill="black"/>
<rect x="86.5156" y="53.5938" width="42.468" height="3.50307" rx="1.75154" transform="rotate(-90 86.5156 53.5938)" stroke="black"/>
<path d="M95.2754 15.207C95.2754 13.9633 96.5356 13.116 97.6875 13.585C98.3471 13.8536 98.7783 14.4948 98.7783 15.207V52.2109C98.7783 53.1781 97.9945 53.9627 97.0273 53.9629C96.06 53.9629 95.2754 53.1783 95.2754 52.2109V15.207Z" fill="black"/>
<path d="M95.2754 15.207C95.2754 13.9633 96.5356 13.116 97.6875 13.585C98.3471 13.8536 98.7783 14.4948 98.7783 15.207V52.2109C98.7783 53.1781 97.9945 53.9627 97.0273 53.9629C96.06 53.9629 95.2754 53.1783 95.2754 52.2109V15.207Z" stroke="black"/>
<path d="M107.542 18.4961C107.538 18.1311 107.882 17.8614 108.235 17.9512L109.353 18.3301C110.57 18.7431 111.389 19.8856 111.389 21.1709V52.2031C111.389 53.1749 110.601 53.9627 109.629 53.9629C108.664 53.9629 107.878 53.1851 107.868 52.2197L107.542 18.4961Z" fill="black"/>
<path d="M107.542 18.4961C107.538 18.1311 107.882 17.8614 108.235 17.9512L109.353 18.3301C110.57 18.7431 111.389 19.8856 111.389 21.1709V52.2031C111.389 53.1749 110.601 53.9627 109.629 53.9629C108.664 53.9629 107.878 53.1851 107.868 52.2197L107.542 18.4961Z" stroke="black"/>
<path d="M115.512 24.7266C115.512 23.3568 117.141 22.6411 118.15 23.5674C118.475 23.8654 118.659 24.286 118.659 24.7266V35.001C118.659 35.5077 118.415 35.9837 118.004 36.2793C116.963 37.0271 115.512 36.2829 115.512 35.001V24.7266Z" fill="black"/>
<path d="M115.512 24.7266C115.512 23.3568 117.141 22.6411 118.15 23.5674C118.475 23.8654 118.659 24.286 118.659 24.7266V35.001C118.659 35.5077 118.415 35.9837 118.004 36.2793C116.963 37.0271 115.512 36.2829 115.512 35.001V24.7266Z" stroke="black"/>
<path d="M123.248 25.9241L129.58 28.121C130.419 28.412 131.285 27.7859 131.278 26.8933C131.273 26.3517 130.936 25.8665 130.432 25.6753L118.627 21.1993L116.838 20.5674C116.176 20.3337 115.485 20.8142 115.469 21.5193C115.446 22.5096 116.064 23.4058 116.995 23.732L123.248 25.9241Z" fill="black"/>
<path d="M123.248 25.9241L129.58 28.121C130.419 28.412 131.285 27.7859 131.278 26.8933C131.273 26.3517 130.936 25.8665 130.432 25.6753L118.627 21.1993L116.838 20.5674C116.176 20.3337 115.485 20.8142 115.469 21.5193C115.446 22.5096 116.064 23.4058 116.995 23.732L123.248 25.9241Z" stroke="black"/>
<path d="M110.009 21.3237C110.681 21.5725 111.388 21.0772 111.388 20.3575C111.388 19.4693 110.841 18.6695 110.016 18.3503L98.3563 13.8399L97.309 13.4199C96.3298 13.0269 95.2738 13.7446 95.2737 14.8039C95.2737 15.4403 95.6706 16.0121 96.2648 16.2322L110.009 21.3237Z" fill="black"/>
<path d="M110.009 21.3237C110.681 21.5725 111.388 21.0772 111.388 20.3575C111.388 19.4693 110.841 18.6695 110.016 18.3503L98.3563 13.8399L97.309 13.4199C96.3298 13.0269 95.2738 13.7446 95.2737 14.8039C95.2737 15.4403 95.6706 16.0121 96.2648 16.2322L110.009 21.3237Z" stroke="black"/>
<path d="M117.26 53.9629C116.082 53.9626 115.425 52.6037 116.156 51.6807C116.421 51.3458 116.825 51.1491 117.252 51.1465L128.396 51.0791C128.804 51.0766 129.194 51.2472 129.47 51.5488C130.315 52.4745 129.658 53.9629 128.404 53.9629H117.26Z" fill="black"/>
<path d="M117.26 53.9629C116.082 53.9626 115.425 52.6037 116.156 51.6807C116.421 51.3458 116.825 51.1491 117.252 51.1465L128.396 51.0791C128.804 51.0766 129.194 51.2472 129.47 51.5488C130.315 52.4745 129.658 53.9629 128.404 53.9629H117.26Z" stroke="black"/>
<path d="M129.47 42.9333C130.011 43.1429 130.62 42.818 130.75 42.2507C130.976 41.2643 130.461 40.2693 129.526 39.8885L117.699 35.0699C116.898 34.7436 115.984 35.2203 115.79 36.0658C115.6 36.8974 116.043 37.7339 116.836 38.0411L129.47 42.9333Z" fill="black"/>
<path d="M129.47 42.9333C130.011 43.1429 130.62 42.818 130.75 42.2507C130.976 41.2643 130.461 40.2693 129.526 39.8885L117.699 35.0699C116.898 34.7436 115.984 35.2203 115.79 36.0658C115.6 36.8974 116.043 37.7339 116.836 38.0411L129.47 42.9333Z" stroke="black"/>
<rect x="75.6562" y="53.5938" width="46.8993" height="3.50307" rx="1.75154" transform="rotate(-90 75.6562 53.5938)" fill="black"/>
<rect x="75.6562" y="53.5938" width="46.8993" height="3.50307" rx="1.75154" transform="rotate(-90 75.6562 53.5938)" stroke="black"/>
<rect x="43.1211" y="50.6201" width="16.3689" height="3.02208" rx="1.51104" fill="black"/>
<rect x="43.1211" y="50.6201" width="16.3689" height="3.02208" rx="1.51104" stroke="black"/>
<rect x="97.7266" y="34.7607" width="11.9104" height="3.32358" rx="1.66179" fill="black"/>
<rect x="97.7266" y="34.7607" width="11.9104" height="3.32358" rx="1.66179" stroke="black"/>
<rect x="45.707" y="34.876" width="11.8804" height="1.56164" rx="0.780821" fill="black"/>
<rect x="45.707" y="34.876" width="11.8804" height="1.56164" rx="0.780821" stroke="black"/>
<rect x="52.1406" y="16.4834" width="35.3972" height="1.48505" rx="0.742524" transform="rotate(90 52.1406 16.4834)" fill="black"/>
<rect x="52.1406" y="16.4834" width="35.3972" height="1.48505" rx="0.742524" transform="rotate(90 52.1406 16.4834)" stroke="black"/>
<path d="M34.3402 34.7343C35.5633 34.4747 36.7094 35.3758 36.7468 36.627C36.7776 37.661 36.0306 38.5656 35.0111 38.7286L28.4696 39.7746C27.5039 39.929 26.6319 39.2061 26.6025 38.2268C26.5708 37.1662 27.3085 36.2263 28.3453 36.0062L34.3402 34.7343Z" fill="black"/>
<path d="M34.3402 34.7343C35.5633 34.4747 36.7094 35.3758 36.7468 36.627C36.7776 37.661 36.0306 38.5656 35.0111 38.7286L28.4696 39.7746C27.5039 39.929 26.6319 39.2061 26.6025 38.2268C26.5708 37.1662 27.3085 36.2263 28.3453 36.0062L34.3402 34.7343Z" stroke="black"/>
<path d="M66.951 0.574923C66.4659 0.357376 65.8999 0.471992 65.5404 0.860387C65.3974 1.01506 65.296 1.20426 65.2454 1.41024L65.203 1.58142C65.1658 1.73348 65.1469 1.89013 65.1469 2.04714L65.147 2.70378L65.1467 3.05433C65.1467 3.39294 65.3153 3.71068 65.5946 3.90056C65.6465 3.93583 65.7013 3.96657 65.7587 3.99155L88.3033 13.8009C88.7344 13.9884 89.2313 13.9148 89.5867 13.6111C89.861 13.3766 90.0193 13.0311 90.0193 12.6664L90.0186 12.3484C90.0186 11.4809 89.5094 10.6909 88.7217 10.3376L66.951 0.574923Z" fill="black"/>
<path d="M66.951 0.574923C66.4659 0.357376 65.8999 0.471992 65.5404 0.860387C65.3974 1.01506 65.296 1.20426 65.2454 1.41024L65.203 1.58142C65.1658 1.73348 65.1469 1.89013 65.1469 2.04714L65.147 2.70378L65.1467 3.05433C65.1467 3.39294 65.3153 3.71068 65.5946 3.90056C65.6465 3.93583 65.7013 3.96657 65.7587 3.99155L88.3033 13.8009C88.7344 13.9884 89.2313 13.9148 89.5867 13.6111C89.861 13.3766 90.0193 13.0311 90.0193 12.6664L90.0186 12.3484C90.0186 11.4809 89.5094 10.6909 88.7217 10.3376L66.951 0.574923Z" stroke="black"/>
<path d="M58.2908 10.516C59.2197 10.118 60.2441 10.7988 60.2442 11.8134L60.2445 12.5237L60.2444 12.8795C60.2444 13.0954 60.1167 13.2917 59.92 13.3787L45.0199 19.9757C44.325 20.2834 43.5171 19.9901 43.1815 19.3089C43.1141 19.172 43.0682 19.0248 43.0471 18.8732L43.032 18.7647C42.8996 17.8135 43.4213 16.8867 44.3016 16.5095L58.2908 10.516Z" fill="black"/>
<path d="M58.2908 10.516C59.2197 10.118 60.2441 10.7988 60.2442 11.8134L60.2445 12.5237L60.2444 12.8795C60.2444 13.0954 60.1167 13.2917 59.92 13.3787L45.0199 19.9757C44.325 20.2834 43.5171 19.9901 43.1815 19.3089C43.1141 19.172 43.0682 19.0248 43.0471 18.8732L43.032 18.7647C42.8996 17.8135 43.4213 16.8867 44.3016 16.5095L58.2908 10.516Z" stroke="black"/>
<g clip-path="url(#paint0_diamond_2_371_clip_path)" data-figma-skip-parse="true"><g transform="matrix(0.0235582 -0.0108016 0.172182 0.417319 38.437 13.5712)"><rect x="0" y="0" width="1574.65" height="7.89011" fill="url(#paint0_diamond_2_371)" opacity="1" shape-rendering="crispEdges"/><rect x="0" y="0" width="1574.65" height="7.89011" transform="scale(1 -1)" fill="url(#paint0_diamond_2_371)" opacity="1" shape-rendering="crispEdges"/><rect x="0" y="0" width="1574.65" height="7.89011" transform="scale(-1 1)" fill="url(#paint0_diamond_2_371)" opacity="1" shape-rendering="crispEdges"/><rect x="0" y="0" width="1574.65" height="7.89011" transform="scale(-1)" fill="url(#paint0_diamond_2_371)" opacity="1" shape-rendering="crispEdges"/></g></g><path d="M3.13827 26.7979C3.45969 26.1578 3.98668 25.6482 4.62723 25.3582L53.4272 3.26078L57.8227 1.1726C58.9888 0.618638 60.2938 1.46012 60.296 2.76741C60.2931 3.80277 59.6819 4.75021 58.7489 5.16557L4.29165 29.4074C3.24239 29.8745 2.20854 28.8024 2.67155 27.7273L3.13827 26.7979Z" data-figma-gradient-fill="{&#34;type&#34;:&#34;GRADIENT_DIAMOND&#34;,&#34;stops&#34;:[{&#34;color&#34;:{&#34;r&#34;:0.0,&#34;g&#34;:0.15999999642372131,&#34;b&#34;:1.0,&#34;a&#34;:1.0},&#34;position&#34;:0.0},{&#34;color&#34;:{&#34;r&#34;:0.46990764141082764,&#34;g&#34;:0.64133626222610474,&#34;b&#34;:1.0,&#34;a&#34;:1.0},&#34;position&#34;:0.52199095487594604},{&#34;color&#34;:{&#34;r&#34;:0.20760577917098999,&#34;g&#34;:0.54072707891464233,&#34;b&#34;:0.98124289512634277,&#34;a&#34;:1.0},&#34;position&#34;:0.72511965036392212},{&#34;color&#34;:{&#34;r&#34;:0.0083671724423766136,&#34;g&#34;:0.39293956756591797,&#34;b&#34;:0.72290956974029541,&#34;a&#34;:1.0},&#34;position&#34;:1.0}],&#34;stopsVar&#34;:[],&#34;transform&#34;:{&#34;m00&#34;:47.116313934326172,&#34;m01&#34;:344.36389160156250,&#34;m02&#34;:-157.30310058593750,&#34;m10&#34;:-21.603246688842773,&#34;m11&#34;:834.63708496093750,&#34;m12&#34;:-392.94573974609375},&#34;opacity&#34;:1.0,&#34;blendMode&#34;:&#34;NORMAL&#34;,&#34;visible&#34;:true}"/>
<g clip-path="url(#paint1_diamond_2_371_clip_path)" data-figma-skip-parse="true"><g transform="matrix(5.79148e-09 0.0170795 -0.212242 7.91684e-08 18.273 37.878)"><rect x="0" y="0" width="1908.11" height="8.25262" fill="url(#paint1_diamond_2_371)" opacity="1" shape-rendering="crispEdges"/><rect x="0" y="0" width="1908.11" height="8.25262" transform="scale(1 -1)" fill="url(#paint1_diamond_2_371)" opacity="1" shape-rendering="crispEdges"/><rect x="0" y="0" width="1908.11" height="8.25262" transform="scale(-1 1)" fill="url(#paint1_diamond_2_371)" opacity="1" shape-rendering="crispEdges"/><rect x="0" y="0" width="1908.11" height="8.25262" transform="scale(-1)" fill="url(#paint1_diamond_2_371)" opacity="1" shape-rendering="crispEdges"/></g></g><path d="M16.5215 9.13184C16.5215 7.62976 18.2881 6.82426 19.4219 7.80957C19.8046 8.14223 20.0244 8.62473 20.0244 9.13184L20.0244 51.9131C20.0244 52.8803 19.2406 53.6648 18.2734 53.665C17.3061 53.665 16.5215 52.8804 16.5215 51.9131L16.5215 9.13184Z" data-figma-gradient-fill="{&#34;type&#34;:&#34;GRADIENT_DIAMOND&#34;,&#34;stops&#34;:[{&#34;color&#34;:{&#34;r&#34;:0.18383626639842987,&#34;g&#34;:0.42113229632377625,&#34;b&#34;:0.77707618474960327,&#34;a&#34;:1.0},&#34;position&#34;:0.0},{&#34;color&#34;:{&#34;r&#34;:0.13319803774356842,&#34;g&#34;:0.38277134299278259,&#34;b&#34;:0.85482811927795410,&#34;a&#34;:1.0},&#34;position&#34;:0.28761175274848938},{&#34;color&#34;:{&#34;r&#34;:0.19350089132785797,&#34;g&#34;:0.44016012549400330,&#34;b&#34;:0.95207619667053223,&#34;a&#34;:1.0},&#34;position&#34;:0.41782242059707642},{&#34;color&#34;:{&#34;r&#34;:0.25492969155311584,&#34;g&#34;:0.39455184340476990,&#34;b&#34;:0.88957619667053223,&#34;a&#34;:1.0},&#34;position&#34;:1.0}],&#34;stopsVar&#34;:[],&#34;transform&#34;:{&#34;m00&#34;:1.1582969818846323e-05,&#34;m01&#34;:-424.48495483398438,&#34;m02&#34;:230.51551818847656,&#34;m10&#34;:34.159000396728516,&#34;m11&#34;:0.00015833678480703384,&#34;m12&#34;:20.798460006713867},&#34;opacity&#34;:1.0,&#34;blendMode&#34;:&#34;NORMAL&#34;,&#34;visible&#34;:true}"/>
<path d="M16.5215 9.13184C16.5215 7.62976 18.2881 6.82426 19.4219 7.80957C19.8046 8.14223 20.0244 8.62473 20.0244 9.13184L20.0244 51.9131C20.0244 52.8803 19.2406 53.6648 18.2734 53.665C17.3061 53.665 16.5215 52.8804 16.5215 51.9131L16.5215 9.13184Z" stroke="#2725A4"/>
<defs>
<clipPath id="paint0_diamond_2_371_clip_path"><path d="M3.13827 26.7979C3.45969 26.1578 3.98668 25.6482 4.62723 25.3582L53.4272 3.26078L57.8227 1.1726C58.9888 0.618638 60.2938 1.46012 60.296 2.76741C60.2931 3.80277 59.6819 4.75021 58.7489 5.16557L4.29165 29.4074C3.24239 29.8745 2.20854 28.8024 2.67155 27.7273L3.13827 26.7979Z"/></clipPath><clipPath id="paint1_diamond_2_371_clip_path"><path d="M16.5215 9.13184C16.5215 7.62976 18.2881 6.82426 19.4219 7.80957C19.8046 8.14223 20.0244 8.62473 20.0244 9.13184L20.0244 51.9131C20.0244 52.8803 19.2406 53.6648 18.2734 53.665C17.3061 53.665 16.5215 52.8804 16.5215 51.9131L16.5215 9.13184Z"/></clipPath><linearGradient id="paint0_diamond_2_371" x1="0" y1="0" x2="500" y2="500" gradientUnits="userSpaceOnUse">
<stop stop-color="#0029FF"/>
<stop offset="0.521991" stop-color="#78A4FF"/>
<stop offset="0.72512" stop-color="#358AFA"/>
<stop offset="1" stop-color="#0264B8"/>
</linearGradient>
<linearGradient id="paint1_diamond_2_371" x1="0" y1="0" x2="500" y2="500" gradientUnits="userSpaceOnUse">
<stop stop-color="#2F6BC6"/>
<stop offset="0.287612" stop-color="#2262DA"/>
<stop offset="0.417822" stop-color="#3170F3"/>
<stop offset="1" stop-color="#4165E3"/>
</linearGradient>
</defs>
</svg>
