<svg width="17" height="19" viewBox="0 0 17 19" fill="none" xmlns="http://www.w3.org/2000/svg">
<path d="M8.20658 18.0488C7.44088 18.8107 6.19828 18.8107 5.43258 18.0488L0.574275 13.2133C-0.191425 12.4514 -0.191425 11.2126 0.574275 10.4507C1.33998 9.68885 2.58258 9.68885 3.34828 10.4507L8.20468 15.2862C8.97228 16.0481 8.97228 17.2869 8.20658 18.0488ZM16.6141 2.93055L8.49918 17.4921C7.95578 18.425 6.75688 18.7461 5.82018 18.2084C4.88158 17.6669 4.55858 16.4737 5.10198 15.5389L13.215 0.977348C13.7565 0.0425478 14.9554 -0.276652 15.894 0.261048C16.8345 0.802548 17.1537 1.99765 16.6141 2.93055Z" fill="white"/>
</svg>
