<svg width="294" height="483" viewBox="0 0 294 483" fill="none" xmlns="http://www.w3.org/2000/svg">
<rect x="2.5" y="-2.5" width="289" height="477.352" transform="matrix(-1 0 0 1 294 5)" fill="url(#paint0_linear_1_465)" stroke="#464545" stroke-width="5"/>
<rect x="2.5" y="-2.5" width="249.27" height="431.736" transform="matrix(-1 0 0 1 273.4 28.5439)" fill="url(#paint1_linear_1_465)" stroke="#464545" stroke-width="5"/>
<rect x="2" y="-2" width="212.953" height="389.534" transform="matrix(-1 0 0 1 254.74 49.1455)" fill="url(#paint2_linear_1_465)" stroke="#464545" stroke-width="4"/>
<path d="M250.74 49.1455L40.3145 236.026L250.74 434.679" stroke="#464545" stroke-width="2"/>
<path d="M34.843 222.311H25.1848C23.528 222.311 22.1848 223.654 22.1848 225.311V251.155C22.1849 252.812 23.5281 254.155 25.1848 254.155H34.843C36.4998 254.155 37.8429 252.812 37.843 251.155V225.311C37.843 223.654 36.4999 222.311 34.843 222.311Z" fill="#00FF94" stroke="#464545" stroke-width="2"/>
<path d="M71.6902 236.36C71.6902 234.29 70.0117 232.611 67.9412 232.611H31.823C29.7524 232.611 28.074 234.29 28.074 236.36C28.074 238.431 29.7525 240.109 31.823 240.109H67.9412C70.0117 240.109 71.6901 238.431 71.6902 236.36Z" fill="#00FFA3" stroke="#464545" stroke-width="2"/>
<defs>
<linearGradient id="paint0_linear_1_465" x1="142" y1="1.31836e-08" x2="141.264" y2="598.901" gradientUnits="userSpaceOnUse">
<stop stop-color="white"/>
<stop offset="1" stop-color="white" stop-opacity="0"/>
</linearGradient>
<linearGradient id="paint1_linear_1_465" x1="122.135" y1="1.19104e-08" x2="121.437" y2="541.064" gradientUnits="userSpaceOnUse">
<stop stop-color="white"/>
<stop offset="1" stop-color="white" stop-opacity="0"/>
</linearGradient>
<linearGradient id="paint2_linear_1_465" x1="103.836" y1="117.278" x2="103.773" y2="568.864" gradientUnits="userSpaceOnUse">
<stop stop-color="white" stop-opacity="0.1"/>
<stop offset="0.6875" stop-color="#1061FF" stop-opacity="0.36"/>
</linearGradient>
</defs>
</svg>
