<svg width="657" height="512" viewBox="0 0 657 512" fill="none" xmlns="http://www.w3.org/2000/svg">
<rect x="3" y="-3" width="650.76" height="505.7" transform="matrix(-1 0 0 1 656.76 6)" fill="url(#paint0_linear_1_160)" stroke="#464545" stroke-width="6"/>
<rect x="2.5" y="-2.5" width="184.967" height="450.216" transform="matrix(-1 0 0 1 634.207 32.4707)" fill="url(#paint1_linear_1_160)" stroke="#464545" stroke-width="5"/>
<path d="M235.856 29.9707V480.208L238.378 480.187L418.346 478.63L420.824 478.608V29.9707H235.856Z" fill="url(#paint2_linear_1_160)" stroke="#464545" stroke-width="5"/>
<path d="M25.1455 30.8789V481.116L27.667 481.095L207.635 479.538L210.113 479.517V30.8789H25.1455Z" fill="url(#paint3_linear_1_160)" stroke="#464545" stroke-width="5"/>
<path d="M486.598 253.373C485.231 254.74 485.231 256.956 486.598 258.323L508.872 280.596C510.239 281.963 512.455 281.963 513.822 280.596C515.188 279.23 515.188 277.013 513.822 275.647L494.023 255.848L513.822 236.049C515.188 234.682 515.188 232.466 513.822 231.099C512.455 229.732 510.239 229.732 508.872 231.099L486.598 253.373ZM588.881 255.848V252.348H489.073V255.848V259.348H588.881V255.848Z" fill="#1FD388"/>
<path d="M276.001 253.373C274.634 254.74 274.634 256.956 276.001 258.323L298.275 280.596C299.641 281.963 301.857 281.963 303.224 280.596C304.591 279.23 304.591 277.013 303.224 275.647L283.425 255.848L303.224 236.049C304.591 234.682 304.591 232.466 303.224 231.099C301.857 229.732 299.641 229.732 298.275 231.099L276.001 253.373ZM378.284 255.848V252.348H278.476V255.848V259.348H378.284V255.848Z" fill="#1FD388"/>
<rect x="-2" y="2" width="12.9674" height="27.9443" transform="matrix(-1 0 0 1 646.76 239.881)" fill="#1FD388" stroke="#464545" stroke-width="4"/>
<rect x="-2" y="2" width="16.9597" height="27.9443" transform="matrix(-1 0 0 1 440.159 238.736)" fill="#1FD388" stroke="#464545" stroke-width="4"/>
<defs>
<linearGradient id="paint0_linear_1_160" x1="322.38" y1="1.39469e-08" x2="322.017" y2="633.576" gradientUnits="userSpaceOnUse">
<stop stop-color="white"/>
<stop offset="1" stop-color="white" stop-opacity="0"/>
</linearGradient>
<linearGradient id="paint1_linear_1_160" x1="89.4317" y1="135.433" x2="89.335" y2="656.926" gradientUnits="userSpaceOnUse">
<stop stop-color="white" stop-opacity="0.1"/>
<stop offset="0.6875" stop-color="#1061FF" stop-opacity="0.36"/>
</linearGradient>
<linearGradient id="paint2_linear_1_160" x1="328.893" y1="167.903" x2="328.989" y2="689.397" gradientUnits="userSpaceOnUse">
<stop stop-color="white" stop-opacity="0.1"/>
<stop offset="0.6875" stop-color="#1061FF" stop-opacity="0.36"/>
</linearGradient>
<linearGradient id="paint3_linear_1_160" x1="118.182" y1="168.812" x2="118.278" y2="690.305" gradientUnits="userSpaceOnUse">
<stop stop-color="white" stop-opacity="0.1"/>
<stop offset="0.6875" stop-color="#1061FF" stop-opacity="0.36"/>
</linearGradient>
</defs>
</svg>
