<svg width="178" height="101" viewBox="0 0 178 101" fill="none" xmlns="http://www.w3.org/2000/svg">
<rect x="1" y="1" width="176" height="98.4663" fill="url(#paint0_linear_2_1440)" stroke="#464545" stroke-width="2"/>
<rect x="1" y="-1" width="51.886" height="89.1502" transform="matrix(-1 0 0 1 173.492 6.80811)" fill="url(#paint1_linear_2_1440)" stroke="#464545" stroke-width="2"/>
<rect x="1" y="-1" width="44.6736" height="80.7358" transform="matrix(-1 0 0 1 169.887 11.0146)" fill="url(#paint2_linear_2_1440)" stroke="#464545" stroke-width="2"/>
<path d="M167.887 11.0146L124.913 49.1805L167.887 89.7505" stroke="#464545" stroke-width="2"/>
<path d="M125.213 89.7505L145.648 11.0146L167.887 89.7505" stroke="#464545" stroke-width="2"/>
<rect x="62.9062" y="5.80811" width="51.886" height="89.1502" fill="url(#paint3_linear_2_1440)" stroke="#464545" stroke-width="2"/>
<rect x="66.5117" y="10.0146" width="44.6736" height="80.7358" fill="url(#paint4_linear_2_1440)" stroke="#464545" stroke-width="2"/>
<path d="M67.5117 11.0146L110.486 49.1805L67.5117 89.7505" stroke="#464545" stroke-width="2"/>
<path d="M110.185 89.7505L89.7501 11.0146L67.5117 89.7505" stroke="#464545" stroke-width="2"/>
<rect x="5.20703" y="5.80811" width="51.886" height="89.1502" fill="url(#paint5_linear_2_1440)" stroke="#464545" stroke-width="2"/>
<rect x="5.50781" y="5.80811" width="51.5855" height="89.1502" fill="url(#paint6_linear_2_1440)" stroke="#464545" stroke-width="2"/>
<line x1="31.5488" y1="43.4712" x2="31.5488" y2="57.295" stroke="#5F5A5A" stroke-width="2"/>
<line x1="37.7617" y1="50.4824" x2="24.5389" y2="50.4824" stroke="#5F5A5A" stroke-width="2"/>
<path d="M112.59 46.6763C113.309 46.6763 113.893 47.2595 113.894 47.979V51.2847C113.894 52.0044 113.31 52.5884 112.59 52.5884C111.87 52.5882 111.287 52.0042 111.287 51.2847V47.979L111.294 47.8462C111.361 47.1892 111.915 46.6765 112.59 46.6763Z" fill="#00FF94" stroke="#464545"/>
<mask id="path-15-inside-1_2_1440" fill="white">
<path d="M104.845 50.2188C104.309 50.2188 103.875 49.7845 103.875 49.2489C103.875 48.7132 104.309 48.279 104.845 48.279H112.221C112.757 48.279 113.191 48.7132 113.191 49.2489C113.191 49.7845 112.757 50.2188 112.221 50.2188H104.845Z"/>
</mask>
<path d="M104.845 50.2188C104.309 50.2188 103.875 49.7845 103.875 49.2489C103.875 48.7132 104.309 48.279 104.845 48.279H112.221C112.757 48.279 113.191 48.7132 113.191 49.2489C113.191 49.7845 112.757 50.2188 112.221 50.2188H104.845Z" fill="#00FFA3"/>
<path d="M104.845 48.279V50.279H112.221V48.279V46.279H104.845V48.279ZM112.221 50.2188V48.2188H104.845V50.2188V52.2188H112.221V50.2188ZM113.191 49.2489H111.191C111.191 48.6799 111.652 48.2188 112.221 48.2188V50.2188V52.2188C113.861 52.2188 115.191 50.8891 115.191 49.2489H113.191ZM112.221 48.279V50.279C111.652 50.279 111.191 49.8178 111.191 49.2489H113.191H115.191C115.191 47.6086 113.861 46.279 112.221 46.279V48.279ZM103.875 49.2489H105.875C105.875 49.8178 105.414 50.279 104.845 50.279V48.279V46.279C103.205 46.279 101.875 47.6086 101.875 49.2489H103.875ZM103.875 49.2489H101.875C101.875 50.8891 103.205 52.2188 104.845 52.2188V50.2188V48.2188C105.414 48.2188 105.875 48.6799 105.875 49.2489H103.875Z" fill="#464545" mask="url(#path-15-inside-1_2_1440)"/>
<path d="M122.811 46.6768C122.091 46.6768 121.507 47.26 121.507 47.9795V51.2852C121.507 52.0048 122.091 52.5889 122.811 52.5889C123.53 52.5887 124.113 52.0047 124.113 51.2852V47.9795L124.106 47.8467C124.04 47.1897 123.485 46.6769 122.811 46.6768Z" fill="#00FF94" stroke="#464545"/>
<mask id="path-18-inside-2_2_1440" fill="white">
<path d="M130.554 50.2192C131.089 50.2192 131.523 49.785 131.523 49.2493C131.523 48.7137 131.089 48.2795 130.554 48.2795H123.177C122.642 48.2795 122.207 48.7137 122.207 49.2493C122.207 49.785 122.642 50.2192 123.177 50.2192H130.554Z"/>
</mask>
<path d="M130.554 50.2192C131.089 50.2192 131.523 49.785 131.523 49.2493C131.523 48.7137 131.089 48.2795 130.554 48.2795H123.177C122.642 48.2795 122.207 48.7137 122.207 49.2493C122.207 49.785 122.642 50.2192 123.177 50.2192H130.554Z" fill="#00FFA3"/>
<path d="M130.554 48.2795V50.2795H123.177V48.2795V46.2795H130.554V48.2795ZM123.177 50.2192V48.2192H130.554V50.2192V52.2192H123.177V50.2192ZM122.207 49.2493H124.207C124.207 48.6804 123.746 48.2192 123.177 48.2192V50.2192V52.2192C121.537 52.2192 120.207 50.8896 120.207 49.2493H122.207ZM123.177 48.2795V50.2795C123.746 50.2795 124.207 49.8183 124.207 49.2493H122.207H120.207C120.207 47.6091 121.537 46.2795 123.177 46.2795V48.2795ZM131.523 49.2493H129.523C129.523 49.8183 129.985 50.2795 130.554 50.2795V48.2795V46.2795C132.194 46.2795 133.523 47.6091 133.523 49.2493H131.523ZM131.523 49.2493H133.523C133.523 50.8896 132.194 52.2192 130.554 52.2192V50.2192V48.2192C129.985 48.2192 129.523 48.6804 129.523 49.2493H131.523Z" fill="#464545" mask="url(#path-18-inside-2_2_1440)"/>
<defs>
<linearGradient id="paint0_linear_2_1440" x1="89" y1="2" x2="88.9499" y2="124.311" gradientUnits="userSpaceOnUse">
<stop stop-color="white"/>
<stop offset="1" stop-color="white" stop-opacity="0"/>
</linearGradient>
<linearGradient id="paint1_linear_2_1440" x1="24.943" y1="2.43241e-09" x2="24.8004" y2="110.499" gradientUnits="userSpaceOnUse">
<stop stop-color="white"/>
<stop offset="1" stop-color="white" stop-opacity="0"/>
</linearGradient>
<linearGradient id="paint2_linear_2_1440" x1="21.2059" y1="23.9511" x2="21.1931" y2="116.177" gradientUnits="userSpaceOnUse">
<stop stop-color="white" stop-opacity="0.1"/>
<stop offset="0.6875" stop-color="#1061FF" stop-opacity="0.36"/>
</linearGradient>
<linearGradient id="paint3_linear_2_1440" x1="88.8492" y1="6.80811" x2="88.7066" y2="117.307" gradientUnits="userSpaceOnUse">
<stop stop-color="white"/>
<stop offset="1" stop-color="white" stop-opacity="0"/>
</linearGradient>
<linearGradient id="paint4_linear_2_1440" x1="88.7176" y1="34.9658" x2="88.7049" y2="127.191" gradientUnits="userSpaceOnUse">
<stop stop-color="white" stop-opacity="0.1"/>
<stop offset="0.6875" stop-color="#1061FF" stop-opacity="0.36"/>
</linearGradient>
<linearGradient id="paint5_linear_2_1440" x1="31.15" y1="6.80811" x2="31.0074" y2="117.307" gradientUnits="userSpaceOnUse">
<stop stop-color="white"/>
<stop offset="1" stop-color="white" stop-opacity="0"/>
</linearGradient>
<linearGradient id="paint6_linear_2_1440" x1="31.1484" y1="33.3188" x2="31.135" y2="135.4" gradientUnits="userSpaceOnUse">
<stop stop-color="white" stop-opacity="0.1"/>
<stop offset="0.6875" stop-color="#1061FF" stop-opacity="0.36"/>
</linearGradient>
</defs>
</svg>
