<svg width="178" height="101" viewBox="0 0 178 101" fill="none" xmlns="http://www.w3.org/2000/svg">
<rect x="1" y="-1" width="176" height="98.4663" transform="matrix(-1 0 0 1 178 2)" fill="url(#paint0_linear_2_1674)" stroke="#464545" stroke-width="2"/>
<rect x="1" y="-1" width="51.886" height="89.1502" transform="matrix(-1 0 0 1 173.492 6.80811)" fill="url(#paint1_linear_2_1674)" stroke="#464545" stroke-width="2"/>
<rect x="1" y="-1" width="44.6736" height="80.7358" transform="matrix(-1 0 0 1 169.885 11.0146)" fill="url(#paint2_linear_2_1674)" stroke="#464545" stroke-width="2"/>
<path d="M167.885 11.0146L124.911 49.1805L167.885 89.7505" stroke="#464545" stroke-width="2"/>
<path d="M125.211 89.7505L145.646 11.0146L167.885 89.7505" stroke="#464545" stroke-width="2"/>
<rect x="1" y="-1" width="51.886" height="89.1502" transform="matrix(-1 0 0 1 115.793 6.80811)" fill="url(#paint3_linear_2_1674)" stroke="#464545" stroke-width="2"/>
<rect x="1" y="-1" width="44.6736" height="80.7358" transform="matrix(-1 0 0 1 112.186 11.0146)" fill="url(#paint4_linear_2_1674)" stroke="#464545" stroke-width="2"/>
<path d="M110.186 11.0146L67.2114 49.1805L110.186 89.7505" stroke="#464545" stroke-width="2"/>
<path d="M67.512 89.7505L87.9472 11.0146L110.186 89.7505" stroke="#464545" stroke-width="2"/>
<rect x="5.20898" y="5.80762" width="51.886" height="89.1502" fill="url(#paint5_linear_2_1674)" stroke="#464545" stroke-width="2"/>
<rect x="8.81445" y="10.0146" width="44.6736" height="80.7358" fill="url(#paint6_linear_2_1674)" stroke="#464545" stroke-width="2"/>
<path d="M9.81445 11.0146L52.7886 49.1805L9.81445 89.7505" stroke="#464545" stroke-width="2"/>
<path d="M52.488 89.7505L32.0528 11.0146L9.81445 89.7505" stroke="#464545" stroke-width="2"/>
<path d="M122.809 46.6763C122.089 46.6763 121.505 47.2595 121.505 47.979V51.2847C121.505 52.0044 122.089 52.5884 122.809 52.5884C123.528 52.5882 124.111 52.0042 124.111 51.2847V47.979L124.104 47.8462C124.038 47.1892 123.483 46.6765 122.809 46.6763Z" fill="#00FF94" stroke="#464545"/>
<mask id="path-15-inside-1_2_1674" fill="white">
<path d="M130.554 50.2188C131.089 50.2188 131.523 49.7845 131.523 49.2489C131.523 48.7132 131.089 48.279 130.554 48.279H123.177C122.642 48.279 122.207 48.7132 122.207 49.2489C122.207 49.7845 122.642 50.2188 123.177 50.2188H130.554Z"/>
</mask>
<path d="M130.554 50.2188C131.089 50.2188 131.523 49.7845 131.523 49.2489C131.523 48.7132 131.089 48.279 130.554 48.279H123.177C122.642 48.279 122.207 48.7132 122.207 49.2489C122.207 49.7845 122.642 50.2188 123.177 50.2188H130.554Z" fill="#00FFA3"/>
<path d="M130.554 48.279V50.279H123.177V48.279V46.279H130.554V48.279ZM123.177 50.2188V48.2188H130.554V50.2188V52.2188H123.177V50.2188ZM122.207 49.2489H124.207C124.207 48.6799 123.746 48.2188 123.177 48.2188V50.2188V52.2188C121.537 52.2188 120.207 50.8891 120.207 49.2489H122.207ZM123.177 48.279V50.279C123.746 50.279 124.207 49.8178 124.207 49.2489H122.207H120.207C120.207 47.6086 121.537 46.279 123.177 46.279V48.279ZM131.523 49.2489H129.523C129.523 49.8178 129.985 50.279 130.554 50.279V48.279V46.279C132.194 46.279 133.523 47.6086 133.523 49.2489H131.523ZM131.523 49.2489H133.523C133.523 50.8891 132.194 52.2188 130.554 52.2188V50.2188V48.2188C129.985 48.2188 129.523 48.6799 129.523 49.2489H131.523Z" fill="#464545" mask="url(#path-15-inside-1_2_1674)"/>
<path d="M65.1094 46.6763C64.3898 46.6763 63.8059 47.2595 63.8057 47.979V51.2847C63.8057 52.0044 64.3897 52.5884 65.1094 52.5884C65.8289 52.5882 66.4121 52.0042 66.4121 51.2847V47.979L66.4053 47.8462C66.3386 47.1892 65.7839 46.6765 65.1094 46.6763Z" fill="#00FF94" stroke="#464545"/>
<mask id="path-18-inside-2_2_1674" fill="white">
<path d="M72.8524 50.2192C73.388 50.2192 73.8223 49.785 73.8223 49.2493C73.8223 48.7137 73.388 48.2795 72.8524 48.2795H65.4761C64.9404 48.2795 64.5062 48.7137 64.5062 49.2493C64.5062 49.785 64.9404 50.2192 65.4761 50.2192H72.8524Z"/>
</mask>
<path d="M72.8524 50.2192C73.388 50.2192 73.8223 49.785 73.8223 49.2493C73.8223 48.7137 73.388 48.2795 72.8524 48.2795H65.4761C64.9404 48.2795 64.5062 48.7137 64.5062 49.2493C64.5062 49.785 64.9404 50.2192 65.4761 50.2192H72.8524Z" fill="#00FFA3"/>
<path d="M72.8524 48.2795V50.2795H65.4761V48.2795V46.2795H72.8524V48.2795ZM65.4761 50.2192V48.2192H72.8524V50.2192V52.2192H65.4761V50.2192ZM64.5062 49.2493H66.5062C66.5062 48.6804 66.045 48.2192 65.4761 48.2192V50.2192V52.2192C63.8359 52.2192 62.5062 50.8896 62.5062 49.2493H64.5062ZM65.4761 48.2795V50.2795C66.045 50.2795 66.5062 49.8183 66.5062 49.2493H64.5062H62.5062C62.5062 47.6091 63.8359 46.2795 65.4761 46.2795V48.2795ZM73.8223 49.2493H71.8223C71.8223 49.8183 72.2835 50.2795 72.8524 50.2795V48.2795V46.2795C74.4926 46.2795 75.8223 47.6091 75.8223 49.2493H73.8223ZM73.8223 49.2493H75.8223C75.8223 50.8896 74.4926 52.2192 72.8524 52.2192V50.2192V48.2192C72.2835 48.2192 71.8223 48.6804 71.8223 49.2493H73.8223Z" fill="#464545" mask="url(#path-18-inside-2_2_1674)"/>
<path d="M54.5898 46.6768C55.3094 46.6768 55.8934 47.26 55.8936 47.9795V51.2852C55.8936 52.0048 55.3095 52.5889 54.5898 52.5889C53.8703 52.5887 53.2871 52.0047 53.2871 51.2852V47.9795L53.2939 47.8467C53.3606 47.1897 53.9153 46.6769 54.5898 46.6768Z" fill="#00FF94" stroke="#464545"/>
<mask id="path-21-inside-3_2_1674" fill="white">
<path d="M46.8449 50.2192C46.3092 50.2192 45.875 49.785 45.875 49.2493C45.875 48.7137 46.3092 48.2795 46.8449 48.2795H54.2212C54.7568 48.2795 55.1911 48.7137 55.1911 49.2493C55.1911 49.785 54.7568 50.2192 54.2212 50.2192H46.8449Z"/>
</mask>
<path d="M46.8449 50.2192C46.3092 50.2192 45.875 49.785 45.875 49.2493C45.875 48.7137 46.3092 48.2795 46.8449 48.2795H54.2212C54.7568 48.2795 55.1911 48.7137 55.1911 49.2493C55.1911 49.785 54.7568 50.2192 54.2212 50.2192H46.8449Z" fill="#00FFA3"/>
<path d="M46.8449 48.2795V50.2795H54.2212V48.2795V46.2795H46.8449V48.2795ZM54.2212 50.2192V48.2192H46.8449V50.2192V52.2192H54.2212V50.2192ZM55.1911 49.2493H53.1911C53.1911 48.6804 53.6523 48.2192 54.2212 48.2192V50.2192V52.2192C55.8614 52.2192 57.1911 50.8896 57.1911 49.2493H55.1911ZM54.2212 48.2795V50.2795C53.6523 50.2795 53.1911 49.8183 53.1911 49.2493H55.1911H57.1911C57.1911 47.6091 55.8614 46.2795 54.2212 46.2795V48.2795ZM45.875 49.2493H47.875C47.875 49.8183 47.4138 50.2795 46.8449 50.2795V48.2795V46.2795C45.2047 46.2795 43.875 47.6091 43.875 49.2493H45.875ZM45.875 49.2493H43.875C43.875 50.8896 45.2047 52.2192 46.8449 52.2192V50.2192V48.2192C47.4138 48.2192 47.875 48.6804 47.875 49.2493H45.875Z" fill="#464545" mask="url(#path-21-inside-3_2_1674)"/>
<defs>
<linearGradient id="paint0_linear_2_1674" x1="87" y1="2.69242e-09" x2="86.9499" y2="122.311" gradientUnits="userSpaceOnUse">
<stop stop-color="white"/>
<stop offset="1" stop-color="white" stop-opacity="0"/>
</linearGradient>
<linearGradient id="paint1_linear_2_1674" x1="24.943" y1="2.43241e-09" x2="24.8004" y2="110.499" gradientUnits="userSpaceOnUse">
<stop stop-color="white"/>
<stop offset="1" stop-color="white" stop-opacity="0"/>
</linearGradient>
<linearGradient id="paint2_linear_2_1674" x1="21.2059" y1="23.9511" x2="21.1931" y2="116.177" gradientUnits="userSpaceOnUse">
<stop stop-color="white" stop-opacity="0.1"/>
<stop offset="0.6875" stop-color="#1061FF" stop-opacity="0.36"/>
</linearGradient>
<linearGradient id="paint3_linear_2_1674" x1="24.943" y1="2.43241e-09" x2="24.8004" y2="110.499" gradientUnits="userSpaceOnUse">
<stop stop-color="white"/>
<stop offset="1" stop-color="white" stop-opacity="0"/>
</linearGradient>
<linearGradient id="paint4_linear_2_1674" x1="21.2059" y1="23.9511" x2="21.1931" y2="116.177" gradientUnits="userSpaceOnUse">
<stop stop-color="white" stop-opacity="0.1"/>
<stop offset="0.6875" stop-color="#1061FF" stop-opacity="0.36"/>
</linearGradient>
<linearGradient id="paint5_linear_2_1674" x1="31.152" y1="6.80762" x2="31.0094" y2="117.307" gradientUnits="userSpaceOnUse">
<stop stop-color="white"/>
<stop offset="1" stop-color="white" stop-opacity="0"/>
</linearGradient>
<linearGradient id="paint6_linear_2_1674" x1="31.0203" y1="34.9658" x2="31.0076" y2="127.191" gradientUnits="userSpaceOnUse">
<stop stop-color="white" stop-opacity="0.1"/>
<stop offset="0.6875" stop-color="#1061FF" stop-opacity="0.36"/>
</linearGradient>
</defs>
</svg>
