<svg width="178" height="102" viewBox="0 0 178 102" fill="none" xmlns="http://www.w3.org/2000/svg">
<rect x="1" y="1" width="176" height="99.6468" fill="url(#paint0_linear_2_1544)" stroke="#464545" stroke-width="2"/>
<rect x="6.47656" y="5.86768" width="52.4965" height="90.2167" fill="url(#paint1_linear_2_1544)" stroke="#464545" stroke-width="2"/>
<rect x="10.127" y="10.1265" width="45.1958" height="81.6992" fill="url(#paint2_linear_2_1544)" stroke="#464545" stroke-width="2"/>
<path d="M11.127 11.1265L54.627 49.7593L11.127 90.8257" stroke="#464545" stroke-width="2"/>
<path d="M54.3227 90.8257L33.6374 11.1265L11.127 90.8257" stroke="#464545" stroke-width="2"/>
<rect x="61.8398" y="5.86768" width="52.4965" height="90.2167" fill="url(#paint3_linear_2_1544)" stroke="#464545" stroke-width="2"/>
<rect x="61.8398" y="5.5625" width="52.4965" height="90.2167" fill="url(#paint4_linear_2_1544)" stroke="#464545" stroke-width="2"/>
<rect x="1" y="-1" width="52.4965" height="90.2167" transform="matrix(-1 0 0 1 172.828 6.86768)" fill="url(#paint5_linear_2_1544)" stroke="#464545" stroke-width="2"/>
<rect x="1" y="-1" width="52.4965" height="90.2167" transform="matrix(-1 0 0 1 172.828 6.86768)" fill="url(#paint6_linear_2_1544)" stroke="#464545" stroke-width="2"/>
<line y1="-1" x2="13.993" y2="-1" transform="matrix(0 1 1 0 88.6953 42.7627)" stroke="#5F5A5A" stroke-width="2"/>
<line y1="-1" x2="13.3846" y2="-1" transform="matrix(1 0 0 -1 81.3945 48.8467)" stroke="#5F5A5A" stroke-width="2"/>
<line y1="-1" x2="13.993" y2="-1" transform="matrix(0 1 1 0 146.188 43.0664)" stroke="#5F5A5A" stroke-width="2"/>
<line y1="-1" x2="13.3846" y2="-1" transform="matrix(1 0 0 -1 138.889 49.1504)" stroke="#5F5A5A" stroke-width="2"/>
<path d="M56.7549 47.2173C57.4867 47.2173 58.0801 47.8106 58.0801 48.5425V51.8882C58.0801 52.62 57.4867 53.2134 56.7549 53.2134C56.023 53.2134 55.4297 52.6201 55.4297 51.8882V48.5425L55.4365 48.4067C55.5045 47.7386 56.0688 47.2173 56.7549 47.2173Z" fill="#00FF94" stroke="#464545"/>
<mask id="path-15-inside-1_2_1544" fill="white">
<path d="M48.9154 50.8096C48.3731 50.8096 47.9336 50.37 47.9336 49.8278C47.9336 49.2856 48.3731 48.846 48.9154 48.846H56.3819C56.9241 48.846 57.3637 49.2856 57.3637 49.8278C57.3637 50.37 56.9241 50.8096 56.3819 50.8096H48.9154Z"/>
</mask>
<path d="M48.9154 50.8096C48.3731 50.8096 47.9336 50.37 47.9336 49.8278C47.9336 49.2856 48.3731 48.846 48.9154 48.846H56.3819C56.9241 48.846 57.3637 49.2856 57.3637 49.8278C57.3637 50.37 56.9241 50.8096 56.3819 50.8096H48.9154Z" fill="#00FFA3"/>
<path d="M48.9154 48.846V50.846H56.3819V48.846V46.846H48.9154V48.846ZM56.3819 50.8096V48.8096H48.9154V50.8096V52.8096H56.3819V50.8096ZM57.3637 49.8278H55.3637C55.3637 49.2655 55.8195 48.8096 56.3819 48.8096V50.8096V52.8096C58.0287 52.8096 59.3637 51.4746 59.3637 49.8278H57.3637ZM56.3819 48.846V50.846C55.8195 50.846 55.3637 50.3902 55.3637 49.8278H57.3637H59.3637C59.3637 48.181 58.0287 46.846 56.3819 46.846V48.846ZM47.9336 49.8278H49.9336C49.9336 50.3902 49.4777 50.846 48.9154 50.846V48.846V46.846C47.2686 46.846 45.9336 48.181 45.9336 49.8278H47.9336ZM47.9336 49.8278H45.9336C45.9336 51.4746 47.2686 52.8096 48.9154 52.8096V50.8096V48.8096C49.4777 48.8096 49.9336 49.2654 49.9336 49.8278H47.9336Z" fill="#464545" mask="url(#path-15-inside-1_2_1544)"/>
<defs>
<linearGradient id="paint0_linear_2_1544" x1="89" y1="2" x2="88.9487" y2="125.808" gradientUnits="userSpaceOnUse">
<stop stop-color="white"/>
<stop offset="1" stop-color="white" stop-opacity="0"/>
</linearGradient>
<linearGradient id="paint1_linear_2_1544" x1="32.7248" y1="6.86768" x2="32.5805" y2="118.719" gradientUnits="userSpaceOnUse">
<stop stop-color="white"/>
<stop offset="1" stop-color="white" stop-opacity="0"/>
</linearGradient>
<linearGradient id="paint2_linear_2_1544" x1="32.5923" y1="35.3706" x2="32.5794" y2="128.725" gradientUnits="userSpaceOnUse">
<stop stop-color="white" stop-opacity="0.1"/>
<stop offset="0.6875" stop-color="#1061FF" stop-opacity="0.36"/>
</linearGradient>
<linearGradient id="paint3_linear_2_1544" x1="88.0881" y1="6.86768" x2="87.9438" y2="118.719" gradientUnits="userSpaceOnUse">
<stop stop-color="white"/>
<stop offset="1" stop-color="white" stop-opacity="0"/>
</linearGradient>
<linearGradient id="paint4_linear_2_1544" x1="87.9332" y1="33.3977" x2="87.9197" y2="136.728" gradientUnits="userSpaceOnUse">
<stop stop-color="white" stop-opacity="0.1"/>
<stop offset="0.6875" stop-color="#1061FF" stop-opacity="0.36"/>
</linearGradient>
<linearGradient id="paint5_linear_2_1544" x1="25.2482" y1="2.46217e-09" x2="25.1039" y2="111.851" gradientUnits="userSpaceOnUse">
<stop stop-color="white"/>
<stop offset="1" stop-color="white" stop-opacity="0"/>
</linearGradient>
<linearGradient id="paint6_linear_2_1544" x1="25.0933" y1="26.8352" x2="25.0798" y2="130.166" gradientUnits="userSpaceOnUse">
<stop stop-color="white" stop-opacity="0.1"/>
<stop offset="0.6875" stop-color="#1061FF" stop-opacity="0.36"/>
</linearGradient>
</defs>
</svg>
