<svg width="178" height="102" viewBox="0 0 178 102" fill="none" xmlns="http://www.w3.org/2000/svg">
<rect x="1" y="-1" width="176" height="99.6468" transform="matrix(-1 0 0 1 178 2)" fill="url(#paint0_linear_2_1565)" stroke="#464545" stroke-width="2"/>
<rect x="1" y="-1" width="52.4965" height="90.2167" transform="matrix(-1 0 0 1 172.523 6.86768)" fill="url(#paint1_linear_2_1565)" stroke="#464545" stroke-width="2"/>
<rect x="1" y="-1" width="45.1958" height="81.6992" transform="matrix(-1 0 0 1 168.873 11.1265)" fill="url(#paint2_linear_2_1565)" stroke="#464545" stroke-width="2"/>
<path d="M166.873 11.1265L123.373 49.7593L166.873 90.8257" stroke="#464545" stroke-width="2"/>
<path d="M123.677 90.8257L144.363 11.1265L166.873 90.8257" stroke="#464545" stroke-width="2"/>
<rect x="1" y="-1" width="52.4965" height="90.2167" transform="matrix(-1 0 0 1 117.162 6.86768)" fill="url(#paint3_linear_2_1565)" stroke="#464545" stroke-width="2"/>
<rect x="1" y="-1" width="45.1958" height="81.6992" transform="matrix(-1 0 0 1 113.512 11.1265)" fill="url(#paint4_linear_2_1565)" stroke="#464545" stroke-width="2"/>
<path d="M68.0117 11.1265L111.512 49.7593L68.0117 90.8257" stroke="#464545" stroke-width="2"/>
<rect x="6.17188" y="5.86768" width="52.4965" height="90.2167" fill="url(#paint5_linear_2_1565)" stroke="#464545" stroke-width="2"/>
<rect x="6.17188" y="5.86768" width="52.4965" height="90.2167" fill="url(#paint6_linear_2_1565)" stroke="#464545" stroke-width="2"/>
<line x1="32.8125" y1="41.2417" x2="32.8125" y2="55.2347" stroke="#5F5A5A" stroke-width="2"/>
<line x1="39.1133" y1="48.3252" x2="25.7287" y2="48.3252" stroke="#5F5A5A" stroke-width="2"/>
<path d="M121.245 47.2173C120.513 47.2173 119.92 47.8106 119.92 48.5425V51.8882C119.92 52.62 120.513 53.2134 121.245 53.2134C121.977 53.2134 122.57 52.6201 122.57 51.8882V48.5425L122.563 48.4067C122.496 47.7386 121.931 47.2173 121.245 47.2173Z" fill="#00FF94" stroke="#464545"/>
<mask id="path-14-inside-1_2_1565" fill="white">
<path d="M129.085 50.8096C129.627 50.8096 130.066 50.37 130.066 49.8278C130.066 49.2856 129.627 48.846 129.085 48.846H121.618C121.076 48.846 120.636 49.2856 120.636 49.8278C120.636 50.37 121.076 50.8096 121.618 50.8096H129.085Z"/>
</mask>
<path d="M129.085 50.8096C129.627 50.8096 130.066 50.37 130.066 49.8278C130.066 49.2856 129.627 48.846 129.085 48.846H121.618C121.076 48.846 120.636 49.2856 120.636 49.8278C120.636 50.37 121.076 50.8096 121.618 50.8096H129.085Z" fill="#00FFA3"/>
<path d="M129.085 48.846V50.846H121.618V48.846V46.846H129.085V48.846ZM121.618 50.8096V48.8096H129.085V50.8096V52.8096H121.618V50.8096ZM120.636 49.8278H122.636C122.636 49.2655 122.18 48.8096 121.618 48.8096V50.8096V52.8096C119.971 52.8096 118.636 51.4746 118.636 49.8278H120.636ZM121.618 48.846V50.846C122.18 50.846 122.636 50.3902 122.636 49.8278H120.636H118.636C118.636 48.181 119.971 46.846 121.618 46.846V48.846ZM130.066 49.8278H128.066C128.066 50.3902 128.522 50.846 129.085 50.846V48.846V46.846C130.731 46.846 132.066 48.181 132.066 49.8278H130.066ZM130.066 49.8278H132.066C132.066 51.4746 130.731 52.8096 129.085 52.8096V50.8096V48.8096C128.522 48.8096 128.066 49.2654 128.066 49.8278H130.066Z" fill="#464545" mask="url(#path-14-inside-1_2_1565)"/>
<defs>
<linearGradient id="paint0_linear_2_1565" x1="87" y1="2.72537e-09" x2="86.9487" y2="123.808" gradientUnits="userSpaceOnUse">
<stop stop-color="white"/>
<stop offset="1" stop-color="white" stop-opacity="0"/>
</linearGradient>
<linearGradient id="paint1_linear_2_1565" x1="25.2482" y1="2.46217e-09" x2="25.1039" y2="111.851" gradientUnits="userSpaceOnUse">
<stop stop-color="white"/>
<stop offset="1" stop-color="white" stop-opacity="0"/>
</linearGradient>
<linearGradient id="paint2_linear_2_1565" x1="21.4654" y1="24.2442" x2="21.4525" y2="117.598" gradientUnits="userSpaceOnUse">
<stop stop-color="white" stop-opacity="0.1"/>
<stop offset="0.6875" stop-color="#1061FF" stop-opacity="0.36"/>
</linearGradient>
<linearGradient id="paint3_linear_2_1565" x1="25.2482" y1="2.46217e-09" x2="25.1039" y2="111.851" gradientUnits="userSpaceOnUse">
<stop stop-color="white"/>
<stop offset="1" stop-color="white" stop-opacity="0"/>
</linearGradient>
<linearGradient id="paint4_linear_2_1565" x1="21.4654" y1="24.2442" x2="21.4525" y2="117.598" gradientUnits="userSpaceOnUse">
<stop stop-color="white" stop-opacity="0.1"/>
<stop offset="0.6875" stop-color="#1061FF" stop-opacity="0.36"/>
</linearGradient>
<linearGradient id="paint5_linear_2_1565" x1="32.4201" y1="6.86768" x2="32.2758" y2="118.719" gradientUnits="userSpaceOnUse">
<stop stop-color="white"/>
<stop offset="1" stop-color="white" stop-opacity="0"/>
</linearGradient>
<linearGradient id="paint6_linear_2_1565" x1="32.2652" y1="33.7028" x2="32.2517" y2="137.034" gradientUnits="userSpaceOnUse">
<stop stop-color="white" stop-opacity="0.1"/>
<stop offset="0.6875" stop-color="#1061FF" stop-opacity="0.36"/>
</linearGradient>
</defs>
</svg>
