<svg width="178" height="101" viewBox="0 0 178 101" fill="none" xmlns="http://www.w3.org/2000/svg">
<rect x="1" y="1" width="176" height="98.9687" fill="url(#paint0_linear_2_1609)" stroke="#464545" stroke-width="2"/>
<rect x="5.83398" y="5.83398" width="52.1458" height="89.6042" fill="url(#paint1_linear_2_1609)" stroke="#464545" stroke-width="2"/>
<rect x="9.45703" y="10.062" width="44.8958" height="81.1459" fill="url(#paint2_linear_2_1609)" stroke="#464545" stroke-width="2"/>
<path d="M10.457 11.062L53.6549 49.4266L10.457 90.2079" stroke="#464545" stroke-width="2"/>
<rect x="63.832" y="5.83398" width="52.1458" height="89.6042" fill="url(#paint3_linear_2_1609)" stroke="#464545" stroke-width="2"/>
<rect x="67.457" y="10.062" width="44.8958" height="81.1459" fill="url(#paint4_linear_2_1609)" stroke="#464545" stroke-width="2"/>
<path d="M68.457 11.062L111.655 49.4266L68.457 90.2079" stroke="#464545" stroke-width="2"/>
<path d="M111.353 90.2079L90.8112 11.062L68.457 90.2079" stroke="#464545" stroke-width="2"/>
<path d="M53.3528 90.2079L32.8112 11.062L10.457 90.2079" stroke="#464545" stroke-width="2"/>
<rect x="1" y="-1" width="52.1458" height="89.6042" transform="matrix(-1 0 0 1 172.562 6.83398)" fill="url(#paint5_linear_2_1609)" stroke="#464545" stroke-width="2"/>
<rect x="1" y="-1" width="44.8958" height="81.1459" transform="matrix(-1 0 0 1 168.938 11.062)" fill="url(#paint6_linear_2_1609)" stroke="#464545" stroke-width="2"/>
<path d="M166.938 11.062L123.74 49.4266L166.938 90.2079" stroke="#464545" stroke-width="2"/>
<path d="M113.77 46.9062C114.494 46.9063 115.082 47.4939 115.082 48.2188V51.542C115.082 52.2667 114.494 52.8545 113.77 52.8545C113.045 52.8545 112.457 52.2667 112.457 51.542V48.2188L112.464 48.085C112.531 47.4229 113.09 46.9062 113.77 46.9062Z" fill="#00FF94" stroke="#464545"/>
<mask id="path-14-inside-1_2_1609" fill="white">
<path d="M105.985 50.4712C105.446 50.4712 105.01 50.0347 105.01 49.4962C105.01 48.9578 105.446 48.5213 105.985 48.5213H113.399C113.938 48.5213 114.374 48.9578 114.374 49.4962C114.374 50.0347 113.938 50.4712 113.399 50.4712H105.985Z"/>
</mask>
<path d="M105.985 50.4712C105.446 50.4712 105.01 50.0347 105.01 49.4962C105.01 48.9578 105.446 48.5213 105.985 48.5213H113.399C113.938 48.5213 114.374 48.9578 114.374 49.4962C114.374 50.0347 113.938 50.4712 113.399 50.4712H105.985Z" fill="#00FFA3"/>
<path d="M105.985 48.5213V50.5213H113.399V48.5213V46.5213H105.985V48.5213ZM113.399 50.4712V48.4712H105.985V50.4712V52.4712H113.399V50.4712ZM114.374 49.4962H112.374C112.374 48.9301 112.833 48.4712 113.399 48.4712V50.4712V52.4712C115.042 52.4712 116.374 51.1393 116.374 49.4962H114.374ZM113.399 48.5213V50.5213C112.833 50.5213 112.374 50.0624 112.374 49.4962H114.374H116.374C116.374 47.8532 115.042 46.5213 113.399 46.5213V48.5213ZM105.01 49.4962H107.01C107.01 50.0624 106.551 50.5213 105.985 50.5213V48.5213V46.5213C104.342 46.5213 103.01 47.8532 103.01 49.4962H105.01ZM105.01 49.4962H103.01C103.01 51.1393 104.342 52.4712 105.985 52.4712V50.4712V48.4712C106.551 48.4712 107.01 48.9301 107.01 49.4962H105.01Z" fill="#464545" mask="url(#path-14-inside-1_2_1609)"/>
<path d="M55.7695 46.9062C56.4944 46.9063 57.082 47.4939 57.082 48.2188V51.542C57.0819 52.2667 56.4943 52.8545 55.7695 52.8545C55.0448 52.8545 54.4572 52.2667 54.457 51.542V48.2188L54.4639 48.085C54.5309 47.4229 55.0898 46.9062 55.7695 46.9062Z" fill="#00FF94" stroke="#464545"/>
<mask id="path-17-inside-2_2_1609" fill="white">
<path d="M47.9847 50.4712C47.4463 50.4712 47.0098 50.0347 47.0098 49.4962C47.0098 48.9578 47.4463 48.5213 47.9847 48.5213H55.3994C55.9378 48.5213 56.3743 48.9578 56.3743 49.4962C56.3743 50.0347 55.9378 50.4712 55.3994 50.4712H47.9847Z"/>
</mask>
<path d="M47.9847 50.4712C47.4463 50.4712 47.0098 50.0347 47.0098 49.4962C47.0098 48.9578 47.4463 48.5213 47.9847 48.5213H55.3994C55.9378 48.5213 56.3743 48.9578 56.3743 49.4962C56.3743 50.0347 55.9378 50.4712 55.3994 50.4712H47.9847Z" fill="#00FFA3"/>
<path d="M47.9847 48.5213V50.5213H55.3994V48.5213V46.5213H47.9847V48.5213ZM55.3994 50.4712V48.4712H47.9847V50.4712V52.4712H55.3994V50.4712ZM56.3743 49.4962H54.3743C54.3743 48.9301 54.8333 48.4712 55.3994 48.4712V50.4712V52.4712C57.0424 52.4712 58.3743 51.1393 58.3743 49.4962H56.3743ZM55.3994 48.5213V50.5213C54.8333 50.5213 54.3743 50.0624 54.3743 49.4962H56.3743H58.3743C58.3743 47.8532 57.0424 46.5213 55.3994 46.5213V48.5213ZM47.0098 49.4962H49.0098C49.0098 50.0624 48.5508 50.5213 47.9847 50.5213V48.5213V46.5213C46.3417 46.5213 45.0098 47.8532 45.0098 49.4962H47.0098ZM47.0098 49.4962H45.0098C45.0098 51.1393 46.3417 52.4712 47.9847 52.4712V50.4712V48.4712C48.5508 48.4712 49.0098 48.9301 49.0098 49.4962H47.0098Z" fill="#464545" mask="url(#path-17-inside-2_2_1609)"/>
<defs>
<linearGradient id="paint0_linear_2_1609" x1="89" y1="2" x2="88.9494" y2="124.948" gradientUnits="userSpaceOnUse">
<stop stop-color="white"/>
<stop offset="1" stop-color="white" stop-opacity="0"/>
</linearGradient>
<linearGradient id="paint1_linear_2_1609" x1="31.9069" y1="6.83398" x2="31.7636" y2="117.909" gradientUnits="userSpaceOnUse">
<stop stop-color="white"/>
<stop offset="1" stop-color="white" stop-opacity="0"/>
</linearGradient>
<linearGradient id="paint2_linear_2_1609" x1="31.7733" y1="35.1379" x2="31.7605" y2="127.844" gradientUnits="userSpaceOnUse">
<stop stop-color="white" stop-opacity="0.1"/>
<stop offset="0.6875" stop-color="#1061FF" stop-opacity="0.36"/>
</linearGradient>
<linearGradient id="paint3_linear_2_1609" x1="89.9049" y1="6.83398" x2="89.7616" y2="117.909" gradientUnits="userSpaceOnUse">
<stop stop-color="white"/>
<stop offset="1" stop-color="white" stop-opacity="0"/>
</linearGradient>
<linearGradient id="paint4_linear_2_1609" x1="89.7733" y1="35.1379" x2="89.7605" y2="127.844" gradientUnits="userSpaceOnUse">
<stop stop-color="white" stop-opacity="0.1"/>
<stop offset="0.6875" stop-color="#1061FF" stop-opacity="0.36"/>
</linearGradient>
<linearGradient id="paint5_linear_2_1609" x1="25.0729" y1="2.44508e-09" x2="24.9296" y2="111.075" gradientUnits="userSpaceOnUse">
<stop stop-color="white"/>
<stop offset="1" stop-color="white" stop-opacity="0"/>
</linearGradient>
<linearGradient id="paint6_linear_2_1609" x1="21.3163" y1="24.0758" x2="21.3035" y2="116.782" gradientUnits="userSpaceOnUse">
<stop stop-color="white" stop-opacity="0.1"/>
<stop offset="0.6875" stop-color="#1061FF" stop-opacity="0.36"/>
</linearGradient>
</defs>
</svg>
