<svg width="178" height="101" viewBox="0 0 178 101" fill="none" xmlns="http://www.w3.org/2000/svg">
<rect x="1" y="1" width="176" height="98.4663" fill="url(#paint0_linear_2_1754)" stroke="#464545" stroke-width="2"/>
<rect x="5.50781" y="5.80811" width="51.886" height="89.1502" fill="url(#paint1_linear_2_1754)" stroke="#464545" stroke-width="2"/>
<rect x="9.11523" y="10.0146" width="44.6736" height="80.7358" fill="url(#paint2_linear_2_1754)" stroke="#464545" stroke-width="2"/>
<path d="M10.1152 11.0146L53.0894 49.1805L10.1152 89.7505" stroke="#464545" stroke-width="2"/>
<path d="M52.7888 89.7505L32.3536 11.0146L10.1152 89.7505" stroke="#464545" stroke-width="2"/>
<rect x="63.207" y="5.80811" width="51.886" height="89.1502" fill="url(#paint3_linear_2_1754)" stroke="#464545" stroke-width="2"/>
<rect x="66.8145" y="10.0146" width="44.6736" height="80.7358" fill="url(#paint4_linear_2_1754)" stroke="#464545" stroke-width="2"/>
<path d="M67.8145 11.0146L110.789 49.1805L67.8145 89.7505" stroke="#464545" stroke-width="2"/>
<path d="M110.488 89.7505L90.0528 11.0146L67.8145 89.7505" stroke="#464545" stroke-width="2"/>
<rect x="1" y="-1" width="51.886" height="89.1502" transform="matrix(-1 0 0 1 173.791 6.80762)" fill="url(#paint5_linear_2_1754)" stroke="#464545" stroke-width="2"/>
<rect x="1" y="-1" width="44.6736" height="80.7358" transform="matrix(-1 0 0 1 170.186 11.0146)" fill="url(#paint6_linear_2_1754)" stroke="#464545" stroke-width="2"/>
<path d="M168.186 11.0146L125.211 49.1805L168.186 89.7505" stroke="#464545" stroke-width="2"/>
<path d="M125.512 89.7505L145.947 11.0146L168.186 89.7505" stroke="#464545" stroke-width="2"/>
<path d="M55.1914 46.6763C55.911 46.6763 56.4949 47.2595 56.4951 47.979V51.2847C56.4951 52.0044 55.9111 52.5884 55.1914 52.5884C54.4719 52.5882 53.8887 52.0042 53.8887 51.2847V47.979L53.8955 47.8462C53.9622 47.1892 54.5169 46.6765 55.1914 46.6763Z" fill="#00FF94" stroke="#464545"/>
<mask id="path-15-inside-1_2_1754" fill="white">
<path d="M47.4465 50.2192C46.9108 50.2192 46.4766 49.785 46.4766 49.2493C46.4766 48.7137 46.9108 48.2795 47.4465 48.2795H54.8227C55.3584 48.2795 55.7926 48.7137 55.7926 49.2493C55.7926 49.785 55.3584 50.2192 54.8227 50.2192H47.4465Z"/>
</mask>
<path d="M47.4465 50.2192C46.9108 50.2192 46.4766 49.785 46.4766 49.2493C46.4766 48.7137 46.9108 48.2795 47.4465 48.2795H54.8227C55.3584 48.2795 55.7926 48.7137 55.7926 49.2493C55.7926 49.785 55.3584 50.2192 54.8227 50.2192H47.4465Z" fill="#00FFA3"/>
<path d="M47.4465 48.2795V50.2795H54.8227V48.2795V46.2795H47.4465V48.2795ZM54.8227 50.2192V48.2192H47.4465V50.2192V52.2192H54.8227V50.2192ZM55.7926 49.2493H53.7926C53.7926 48.6804 54.2538 48.2192 54.8227 48.2192V50.2192V52.2192C56.463 52.2192 57.7926 50.8896 57.7926 49.2493H55.7926ZM54.8227 48.2795V50.2795C54.2538 50.2795 53.7926 49.8183 53.7926 49.2493H55.7926H57.7926C57.7926 47.6091 56.4629 46.2795 54.8227 46.2795V48.2795ZM46.4766 49.2493H48.4766C48.4766 49.8183 48.0154 50.2795 47.4465 50.2795V48.2795V46.2795C45.8062 46.2795 44.4766 47.6091 44.4766 49.2493H46.4766ZM46.4766 49.2493H44.4766C44.4766 50.8896 45.8062 52.2192 47.4465 52.2192V50.2192V48.2192C48.0154 48.2192 48.4766 48.6804 48.4766 49.2493H46.4766Z" fill="#464545" mask="url(#path-15-inside-1_2_1754)"/>
<path d="M112.891 46.6763C113.61 46.6763 114.194 47.2595 114.194 47.979V51.2847C114.194 52.0044 113.61 52.5884 112.891 52.5884C112.171 52.5882 111.588 52.0042 111.588 51.2847V47.979L111.595 47.8462C111.661 47.1892 112.216 46.6765 112.891 46.6763Z" fill="#00FF94" stroke="#464545"/>
<mask id="path-18-inside-2_2_1754" fill="white">
<path d="M105.148 50.2192C104.612 50.2192 104.178 49.785 104.178 49.2493C104.178 48.7137 104.612 48.2795 105.148 48.2795H112.524C113.06 48.2795 113.494 48.7137 113.494 49.2493C113.494 49.785 113.06 50.2192 112.524 50.2192H105.148Z"/>
</mask>
<path d="M105.148 50.2192C104.612 50.2192 104.178 49.785 104.178 49.2493C104.178 48.7137 104.612 48.2795 105.148 48.2795H112.524C113.06 48.2795 113.494 48.7137 113.494 49.2493C113.494 49.785 113.06 50.2192 112.524 50.2192H105.148Z" fill="#00FFA3"/>
<path d="M105.148 48.2795V50.2795H112.524V48.2795V46.2795H105.148V48.2795ZM112.524 50.2192V48.2192H105.148V50.2192V52.2192H112.524V50.2192ZM113.494 49.2493H111.494C111.494 48.6804 111.955 48.2192 112.524 48.2192V50.2192V52.2192C114.164 52.2192 115.494 50.8896 115.494 49.2493H113.494ZM112.524 48.2795V50.2795C111.955 50.2795 111.494 49.8183 111.494 49.2493H113.494H115.494C115.494 47.6091 114.164 46.2795 112.524 46.2795V48.2795ZM104.178 49.2493H106.178C106.178 49.8183 105.717 50.2795 105.148 50.2795V48.2795V46.2795C103.507 46.2795 102.178 47.6091 102.178 49.2493H104.178ZM104.178 49.2493H102.178C102.178 50.8896 103.507 52.2192 105.148 52.2192V50.2192V48.2192C105.717 48.2192 106.178 48.6804 106.178 49.2493H104.178Z" fill="#464545" mask="url(#path-18-inside-2_2_1754)"/>
<path d="M123.41 46.6763C122.691 46.6763 122.107 47.2595 122.106 47.979V51.2847C122.106 52.0044 122.69 52.5884 123.41 52.5884C124.13 52.5882 124.713 52.0042 124.713 51.2847V47.979L124.706 47.8462C124.639 47.1892 124.085 46.6765 123.41 46.6763Z" fill="#00FF94" stroke="#464545"/>
<mask id="path-21-inside-3_2_1754" fill="white">
<path d="M131.155 50.2192C131.691 50.2192 132.125 49.785 132.125 49.2493C132.125 48.7137 131.691 48.2795 131.155 48.2795H123.779C123.243 48.2795 122.809 48.7137 122.809 49.2493C122.809 49.785 123.243 50.2192 123.779 50.2192H131.155Z"/>
</mask>
<path d="M131.155 50.2192C131.691 50.2192 132.125 49.785 132.125 49.2493C132.125 48.7137 131.691 48.2795 131.155 48.2795H123.779C123.243 48.2795 122.809 48.7137 122.809 49.2493C122.809 49.785 123.243 50.2192 123.779 50.2192H131.155Z" fill="#00FFA3"/>
<path d="M131.155 48.2795V50.2795H123.779V48.2795V46.2795H131.155V48.2795ZM123.779 50.2192V48.2192H131.155V50.2192V52.2192H123.779V50.2192ZM122.809 49.2493H124.809C124.809 48.6804 124.348 48.2192 123.779 48.2192V50.2192V52.2192C122.139 52.2192 120.809 50.8896 120.809 49.2493H122.809ZM123.779 48.2795V50.2795C124.348 50.2795 124.809 49.8183 124.809 49.2493H122.809H120.809C120.809 47.6091 122.139 46.2795 123.779 46.2795V48.2795ZM132.125 49.2493H130.125C130.125 49.8183 130.586 50.2795 131.155 50.2795V48.2795V46.2795C132.795 46.2795 134.125 47.6091 134.125 49.2493H132.125ZM132.125 49.2493H134.125C134.125 50.8896 132.795 52.2192 131.155 52.2192V50.2192V48.2192C130.586 48.2192 130.125 48.6804 130.125 49.2493H132.125Z" fill="#464545" mask="url(#path-21-inside-3_2_1754)"/>
<defs>
<linearGradient id="paint0_linear_2_1754" x1="89" y1="2" x2="88.9499" y2="124.311" gradientUnits="userSpaceOnUse">
<stop stop-color="white"/>
<stop offset="1" stop-color="white" stop-opacity="0"/>
</linearGradient>
<linearGradient id="paint1_linear_2_1754" x1="31.4508" y1="6.80811" x2="31.3082" y2="117.307" gradientUnits="userSpaceOnUse">
<stop stop-color="white"/>
<stop offset="1" stop-color="white" stop-opacity="0"/>
</linearGradient>
<linearGradient id="paint2_linear_2_1754" x1="31.3211" y1="34.9658" x2="31.3084" y2="127.191" gradientUnits="userSpaceOnUse">
<stop stop-color="white" stop-opacity="0.1"/>
<stop offset="0.6875" stop-color="#1061FF" stop-opacity="0.36"/>
</linearGradient>
<linearGradient id="paint3_linear_2_1754" x1="89.15" y1="6.80811" x2="89.0074" y2="117.307" gradientUnits="userSpaceOnUse">
<stop stop-color="white"/>
<stop offset="1" stop-color="white" stop-opacity="0"/>
</linearGradient>
<linearGradient id="paint4_linear_2_1754" x1="89.0203" y1="34.9658" x2="89.0076" y2="127.191" gradientUnits="userSpaceOnUse">
<stop stop-color="white" stop-opacity="0.1"/>
<stop offset="0.6875" stop-color="#1061FF" stop-opacity="0.36"/>
</linearGradient>
<linearGradient id="paint5_linear_2_1754" x1="24.943" y1="2.43241e-09" x2="24.8004" y2="110.499" gradientUnits="userSpaceOnUse">
<stop stop-color="white"/>
<stop offset="1" stop-color="white" stop-opacity="0"/>
</linearGradient>
<linearGradient id="paint6_linear_2_1754" x1="21.2059" y1="23.9511" x2="21.1931" y2="116.177" gradientUnits="userSpaceOnUse">
<stop stop-color="white" stop-opacity="0.1"/>
<stop offset="0.6875" stop-color="#1061FF" stop-opacity="0.36"/>
</linearGradient>
</defs>
</svg>
