<svg width="178" height="101" viewBox="0 0 178 101" fill="none" xmlns="http://www.w3.org/2000/svg">
<rect x="1" y="1" width="176" height="98.4663" fill="url(#paint0_linear_2_1583)" stroke="#464545" stroke-width="2"/>
<rect x="5.20703" y="5.80811" width="51.886" height="89.1502" fill="url(#paint1_linear_2_1583)" stroke="#464545" stroke-width="2"/>
<rect x="8.81445" y="10.0146" width="44.6736" height="80.7358" fill="url(#paint2_linear_2_1583)" stroke="#464545" stroke-width="2"/>
<path d="M9.81445 11.0146L52.7886 49.1805L9.81445 89.7505" stroke="#464545" stroke-width="2"/>
<path d="M52.488 89.7505L32.0528 11.0146L9.81445 89.7505" stroke="#464545" stroke-width="2"/>
<rect x="1" y="-1" width="51.886" height="89.1502" transform="matrix(-1 0 0 1 115.793 6.80811)" fill="url(#paint3_linear_2_1583)" stroke="#464545" stroke-width="2"/>
<rect x="1" y="-1" width="44.6736" height="80.7358" transform="matrix(-1 0 0 1 112.188 11.0146)" fill="url(#paint4_linear_2_1583)" stroke="#464545" stroke-width="2"/>
<path d="M110.188 11.0146L67.2134 49.1805L110.188 89.7505" stroke="#464545" stroke-width="2"/>
<path d="M67.5139 89.7505L87.9492 11.0146L110.188 89.7505" stroke="#464545" stroke-width="2"/>
<rect x="1" y="-1" width="51.886" height="89.1502" transform="matrix(-1 0 0 1 173.492 6.80811)" fill="url(#paint5_linear_2_1583)" stroke="#464545" stroke-width="2"/>
<rect x="1" y="-1" width="51.5855" height="89.1502" transform="matrix(-1 0 0 1 173.191 6.80811)" fill="url(#paint6_linear_2_1583)" stroke="#464545" stroke-width="2"/>
<path d="M65.1094 46.6768C64.3898 46.6768 63.8059 47.26 63.8057 47.9795V51.2852C63.8057 52.0048 64.3897 52.5889 65.1094 52.5889C65.8289 52.5887 66.4121 52.0047 66.4121 51.2852V47.9795L66.4053 47.8467C66.3386 47.1897 65.7839 46.6769 65.1094 46.6768Z" fill="#00FF94" stroke="#464545"/>
<mask id="path-13-inside-1_2_1583" fill="white">
<path d="M72.8543 50.2192C73.39 50.2192 73.8242 49.785 73.8242 49.2493C73.8242 48.7137 73.39 48.2795 72.8543 48.2795H65.4781C64.9424 48.2795 64.5082 48.7137 64.5082 49.2493C64.5082 49.785 64.9424 50.2192 65.4781 50.2192H72.8543Z"/>
</mask>
<path d="M72.8543 50.2192C73.39 50.2192 73.8242 49.785 73.8242 49.2493C73.8242 48.7137 73.39 48.2795 72.8543 48.2795H65.4781C64.9424 48.2795 64.5082 48.7137 64.5082 49.2493C64.5082 49.785 64.9424 50.2192 65.4781 50.2192H72.8543Z" fill="#00FFA3"/>
<path d="M72.8543 48.2795V50.2795H65.4781V48.2795V46.2795H72.8543V48.2795ZM65.4781 50.2192V48.2192H72.8543V50.2192V52.2192H65.4781V50.2192ZM64.5082 49.2493H66.5082C66.5082 48.6804 66.047 48.2192 65.4781 48.2192V50.2192V52.2192C63.8378 52.2192 62.5082 50.8896 62.5082 49.2493H64.5082ZM65.4781 48.2795V50.2795C66.047 50.2795 66.5082 49.8183 66.5082 49.2493H64.5082H62.5082C62.5082 47.6091 63.8378 46.2795 65.4781 46.2795V48.2795ZM73.8242 49.2493H71.8242C71.8242 49.8183 72.2854 50.2795 72.8543 50.2795V48.2795V46.2795C74.4946 46.2795 75.8242 47.6091 75.8242 49.2493H73.8242ZM73.8242 49.2493H75.8242C75.8242 50.8896 74.4945 52.2192 72.8543 52.2192V50.2192V48.2192C72.2854 48.2192 71.8242 48.6804 71.8242 49.2493H73.8242Z" fill="#464545" mask="url(#path-13-inside-1_2_1583)"/>
<line x1="146.648" y1="42.5698" x2="146.648" y2="56.3937" stroke="#5F5A5A" stroke-width="2"/>
<line x1="152.859" y1="49.5811" x2="139.637" y2="49.5811" stroke="#5F5A5A" stroke-width="2"/>
<path d="M54.8906 46.6768C55.6102 46.6768 56.1941 47.26 56.1943 47.9795V51.2852C56.1943 52.0048 55.6103 52.5889 54.8906 52.5889C54.1711 52.5887 53.5879 52.0047 53.5879 51.2852V47.9795L53.5947 47.8467C53.6614 47.1897 54.2161 46.6769 54.8906 46.6768Z" fill="#00FF94" stroke="#464545"/>
<mask id="path-18-inside-2_2_1583" fill="white">
<path d="M47.1476 50.2192C46.612 50.2192 46.1777 49.785 46.1777 49.2493C46.1777 48.7137 46.612 48.2795 47.1476 48.2795H54.5239C55.0596 48.2795 55.4938 48.7137 55.4938 49.2493C55.4938 49.785 55.0596 50.2192 54.5239 50.2192H47.1476Z"/>
</mask>
<path d="M47.1476 50.2192C46.612 50.2192 46.1777 49.785 46.1777 49.2493C46.1777 48.7137 46.612 48.2795 47.1476 48.2795H54.5239C55.0596 48.2795 55.4938 48.7137 55.4938 49.2493C55.4938 49.785 55.0596 50.2192 54.5239 50.2192H47.1476Z" fill="#00FFA3"/>
<path d="M47.1476 48.2795V50.2795H54.5239V48.2795V46.2795H47.1476V48.2795ZM54.5239 50.2192V48.2192H47.1476V50.2192V52.2192H54.5239V50.2192ZM55.4938 49.2493H53.4938C53.4938 48.6804 53.955 48.2192 54.5239 48.2192V50.2192V52.2192C56.1641 52.2192 57.4938 50.8896 57.4938 49.2493H55.4938ZM54.5239 48.2795V50.2795C53.955 50.2795 53.4938 49.8183 53.4938 49.2493H55.4938H57.4938C57.4938 47.6091 56.1641 46.2795 54.5239 46.2795V48.2795ZM46.1777 49.2493H48.1777C48.1777 49.8183 47.7165 50.2795 47.1476 50.2795V48.2795V46.2795C45.5074 46.2795 44.1777 47.6091 44.1777 49.2493H46.1777ZM46.1777 49.2493H44.1777C44.1777 50.8896 45.5074 52.2192 47.1476 52.2192V50.2192V48.2192C47.7165 48.2192 48.1777 48.6804 48.1777 49.2493H46.1777Z" fill="#464545" mask="url(#path-18-inside-2_2_1583)"/>
<defs>
<linearGradient id="paint0_linear_2_1583" x1="89" y1="2" x2="88.9499" y2="124.311" gradientUnits="userSpaceOnUse">
<stop stop-color="white"/>
<stop offset="1" stop-color="white" stop-opacity="0"/>
</linearGradient>
<linearGradient id="paint1_linear_2_1583" x1="31.15" y1="6.80811" x2="31.0074" y2="117.307" gradientUnits="userSpaceOnUse">
<stop stop-color="white"/>
<stop offset="1" stop-color="white" stop-opacity="0"/>
</linearGradient>
<linearGradient id="paint2_linear_2_1583" x1="31.0203" y1="34.9658" x2="31.0076" y2="127.191" gradientUnits="userSpaceOnUse">
<stop stop-color="white" stop-opacity="0.1"/>
<stop offset="0.6875" stop-color="#1061FF" stop-opacity="0.36"/>
</linearGradient>
<linearGradient id="paint3_linear_2_1583" x1="24.943" y1="2.43241e-09" x2="24.8004" y2="110.499" gradientUnits="userSpaceOnUse">
<stop stop-color="white"/>
<stop offset="1" stop-color="white" stop-opacity="0"/>
</linearGradient>
<linearGradient id="paint4_linear_2_1583" x1="21.2059" y1="23.9511" x2="21.1931" y2="116.177" gradientUnits="userSpaceOnUse">
<stop stop-color="white" stop-opacity="0.1"/>
<stop offset="0.6875" stop-color="#1061FF" stop-opacity="0.36"/>
</linearGradient>
<linearGradient id="paint5_linear_2_1583" x1="24.943" y1="2.43241e-09" x2="24.8004" y2="110.499" gradientUnits="userSpaceOnUse">
<stop stop-color="white"/>
<stop offset="1" stop-color="white" stop-opacity="0"/>
</linearGradient>
<linearGradient id="paint6_linear_2_1583" x1="24.6406" y1="26.5107" x2="24.6272" y2="128.592" gradientUnits="userSpaceOnUse">
<stop stop-color="white" stop-opacity="0.1"/>
<stop offset="0.6875" stop-color="#1061FF" stop-opacity="0.36"/>
</linearGradient>
</defs>
</svg>
