<svg width="178" height="102" viewBox="0 0 178 102" fill="none" xmlns="http://www.w3.org/2000/svg">
<rect x="1" y="1" width="176" height="99.6468" fill="url(#paint0_linear_2_1420)" stroke="#464545" stroke-width="2"/>
<rect x="6.47656" y="5.86768" width="52.4965" height="90.2167" fill="url(#paint1_linear_2_1420)" stroke="#464545" stroke-width="2"/>
<rect x="10.127" y="10.1265" width="45.1958" height="81.6992" fill="url(#paint2_linear_2_1420)" stroke="#464545" stroke-width="2"/>
<path d="M11.127 11.1265L54.627 49.7593L11.127 90.8257" stroke="#464545" stroke-width="2"/>
<path d="M54.3227 90.8257L33.6374 11.1265L11.127 90.8257" stroke="#464545" stroke-width="2"/>
<rect x="61.8379" y="5.86768" width="52.4965" height="90.2167" fill="url(#paint3_linear_2_1420)" stroke="#464545" stroke-width="2"/>
<rect x="65.4883" y="10.1265" width="45.1958" height="81.6992" fill="url(#paint4_linear_2_1420)" stroke="#464545" stroke-width="2"/>
<path d="M109.988 11.1265L66.4883 49.7593L109.988 90.8257" stroke="#464545" stroke-width="2"/>
<rect x="1" y="-1" width="52.4965" height="90.2167" transform="matrix(-1 0 0 1 172.828 6.86768)" fill="url(#paint5_linear_2_1420)" stroke="#464545" stroke-width="2"/>
<rect x="1" y="-1" width="52.4965" height="90.2167" transform="matrix(-1 0 0 1 172.828 6.86768)" fill="url(#paint6_linear_2_1420)" stroke="#464545" stroke-width="2"/>
<line y1="-1" x2="13.993" y2="-1" transform="matrix(0 1 1 0 146.188 41.2417)" stroke="#5F5A5A" stroke-width="2"/>
<line y1="-1" x2="13.3846" y2="-1" transform="matrix(1 0 0 -1 138.887 47.3252)" stroke="#5F5A5A" stroke-width="2"/>
<path d="M56.7549 47.2173C57.4867 47.2173 58.0801 47.8106 58.0801 48.5425V51.8882C58.0801 52.62 57.4867 53.2134 56.7549 53.2134C56.023 53.2134 55.4297 52.6201 55.4297 51.8882V48.5425L55.4365 48.4067C55.5045 47.7386 56.0688 47.2173 56.7549 47.2173Z" fill="#00FF94" stroke="#464545"/>
<path d="M48.4336 49.8281C48.4336 49.5622 48.6491 49.3459 48.915 49.3457H56.3818C56.6479 49.3457 56.8633 49.5621 56.8633 49.8281C56.8631 50.094 56.6478 50.3096 56.3818 50.3096H48.915C48.6492 50.3094 48.4338 50.0939 48.4336 49.8281Z" fill="#00FFA3" stroke="#464545"/>
<defs>
<linearGradient id="paint0_linear_2_1420" x1="89" y1="2" x2="88.9487" y2="125.808" gradientUnits="userSpaceOnUse">
<stop stop-color="white"/>
<stop offset="1" stop-color="white" stop-opacity="0"/>
</linearGradient>
<linearGradient id="paint1_linear_2_1420" x1="32.7248" y1="6.86768" x2="32.5805" y2="118.719" gradientUnits="userSpaceOnUse">
<stop stop-color="white"/>
<stop offset="1" stop-color="white" stop-opacity="0"/>
</linearGradient>
<linearGradient id="paint2_linear_2_1420" x1="32.5923" y1="35.3706" x2="32.5794" y2="128.725" gradientUnits="userSpaceOnUse">
<stop stop-color="white" stop-opacity="0.1"/>
<stop offset="0.6875" stop-color="#1061FF" stop-opacity="0.36"/>
</linearGradient>
<linearGradient id="paint3_linear_2_1420" x1="88.0861" y1="6.86768" x2="87.9418" y2="118.719" gradientUnits="userSpaceOnUse">
<stop stop-color="white"/>
<stop offset="1" stop-color="white" stop-opacity="0"/>
</linearGradient>
<linearGradient id="paint4_linear_2_1420" x1="87.9537" y1="35.3706" x2="87.9408" y2="128.725" gradientUnits="userSpaceOnUse">
<stop stop-color="white" stop-opacity="0.1"/>
<stop offset="0.6875" stop-color="#1061FF" stop-opacity="0.36"/>
</linearGradient>
<linearGradient id="paint5_linear_2_1420" x1="25.2482" y1="2.46217e-09" x2="25.1039" y2="111.851" gradientUnits="userSpaceOnUse">
<stop stop-color="white"/>
<stop offset="1" stop-color="white" stop-opacity="0"/>
</linearGradient>
<linearGradient id="paint6_linear_2_1420" x1="25.0933" y1="26.8352" x2="25.0798" y2="130.166" gradientUnits="userSpaceOnUse">
<stop stop-color="white" stop-opacity="0.1"/>
<stop offset="0.6875" stop-color="#1061FF" stop-opacity="0.36"/>
</linearGradient>
</defs>
</svg>
