<svg width="178" height="101" viewBox="0 0 178 101" fill="none" xmlns="http://www.w3.org/2000/svg">
<rect x="1" y="-1" width="176" height="98.4663" transform="matrix(-1 0 0 1 178 2)" fill="url(#paint0_linear_2_1631)" stroke="#464545" stroke-width="2"/>
<rect x="1" y="-1" width="51.886" height="89.1502" transform="matrix(-1 0 0 1 173.492 6.80811)" fill="url(#paint1_linear_2_1631)" stroke="#464545" stroke-width="2"/>
<rect x="1" y="-1" width="51.5855" height="89.1502" transform="matrix(-1 0 0 1 173.492 6.80811)" fill="url(#paint2_linear_2_1631)" stroke="#464545" stroke-width="2"/>
<rect x="1" y="-1" width="51.886" height="89.1502" transform="matrix(-1 0 0 1 115.793 6.80811)" fill="url(#paint3_linear_2_1631)" stroke="#464545" stroke-width="2"/>
<rect x="1" y="-1" width="44.6736" height="80.7358" transform="matrix(-1 0 0 1 112.188 11.0146)" fill="url(#paint4_linear_2_1631)" stroke="#464545" stroke-width="2"/>
<path d="M110.188 11.0146L67.2134 49.1805L110.188 89.7505" stroke="#464545" stroke-width="2"/>
<path d="M67.5139 89.7505L87.9492 11.0146L110.188 89.7505" stroke="#464545" stroke-width="2"/>
<rect x="5.20703" y="5.80811" width="51.886" height="89.1502" fill="url(#paint5_linear_2_1631)" stroke="#464545" stroke-width="2"/>
<rect x="5.50781" y="5.80811" width="51.5855" height="89.1502" fill="url(#paint6_linear_2_1631)" stroke="#464545" stroke-width="2"/>
<line x1="147.248" y1="44.9746" x2="147.248" y2="58.7985" stroke="#5F5A5A" stroke-width="2"/>
<line x1="153.461" y1="51.9839" x2="140.238" y2="51.9839" stroke="#5F5A5A" stroke-width="2"/>
<line x1="32.4492" y1="43.4707" x2="32.4492" y2="57.2945" stroke="#5F5A5A" stroke-width="2"/>
<line x1="38.6621" y1="50.4819" x2="25.4393" y2="50.4819" stroke="#5F5A5A" stroke-width="2"/>
<path d="M65.1094 46.6768C64.3898 46.6768 63.8059 47.26 63.8057 47.9795V51.2852C63.8057 52.0048 64.3897 52.5889 65.1094 52.5889C65.8289 52.5887 66.4121 52.0047 66.4121 51.2852V47.9795L66.4053 47.8467C66.3386 47.1897 65.7839 46.6769 65.1094 46.6768Z" fill="#00FF94" stroke="#464545"/>
<mask id="path-15-inside-1_2_1631" fill="white">
<path d="M72.8543 50.2192C73.39 50.2192 73.8242 49.785 73.8242 49.2493C73.8242 48.7137 73.39 48.2795 72.8543 48.2795H65.4781C64.9424 48.2795 64.5082 48.7137 64.5082 49.2493C64.5082 49.785 64.9424 50.2192 65.4781 50.2192H72.8543Z"/>
</mask>
<path d="M72.8543 50.2192C73.39 50.2192 73.8242 49.785 73.8242 49.2493C73.8242 48.7137 73.39 48.2795 72.8543 48.2795H65.4781C64.9424 48.2795 64.5082 48.7137 64.5082 49.2493C64.5082 49.785 64.9424 50.2192 65.4781 50.2192H72.8543Z" fill="#00FFA3"/>
<path d="M72.8543 48.2795V50.2795H65.4781V48.2795V46.2795H72.8543V48.2795ZM65.4781 50.2192V48.2192H72.8543V50.2192V52.2192H65.4781V50.2192ZM64.5082 49.2493H66.5082C66.5082 48.6804 66.047 48.2192 65.4781 48.2192V50.2192V52.2192C63.8378 52.2192 62.5082 50.8896 62.5082 49.2493H64.5082ZM65.4781 48.2795V50.2795C66.047 50.2795 66.5082 49.8183 66.5082 49.2493H64.5082H62.5082C62.5082 47.6091 63.8378 46.2795 65.4781 46.2795V48.2795ZM73.8242 49.2493H71.8242C71.8242 49.8183 72.2854 50.2795 72.8543 50.2795V48.2795V46.2795C74.4946 46.2795 75.8242 47.6091 75.8242 49.2493H73.8242ZM73.8242 49.2493H75.8242C75.8242 50.8896 74.4945 52.2192 72.8543 52.2192V50.2192V48.2192C72.2854 48.2192 71.8242 48.6804 71.8242 49.2493H73.8242Z" fill="#464545" mask="url(#path-15-inside-1_2_1631)"/>
<defs>
<linearGradient id="paint0_linear_2_1631" x1="87" y1="2.69242e-09" x2="86.9499" y2="122.311" gradientUnits="userSpaceOnUse">
<stop stop-color="white"/>
<stop offset="1" stop-color="white" stop-opacity="0"/>
</linearGradient>
<linearGradient id="paint1_linear_2_1631" x1="24.943" y1="2.43241e-09" x2="24.8004" y2="110.499" gradientUnits="userSpaceOnUse">
<stop stop-color="white"/>
<stop offset="1" stop-color="white" stop-opacity="0"/>
</linearGradient>
<linearGradient id="paint2_linear_2_1631" x1="24.6406" y1="26.5107" x2="24.6272" y2="128.592" gradientUnits="userSpaceOnUse">
<stop stop-color="white" stop-opacity="0.1"/>
<stop offset="0.6875" stop-color="#1061FF" stop-opacity="0.36"/>
</linearGradient>
<linearGradient id="paint3_linear_2_1631" x1="24.943" y1="2.43241e-09" x2="24.8004" y2="110.499" gradientUnits="userSpaceOnUse">
<stop stop-color="white"/>
<stop offset="1" stop-color="white" stop-opacity="0"/>
</linearGradient>
<linearGradient id="paint4_linear_2_1631" x1="21.2059" y1="23.9511" x2="21.1931" y2="116.177" gradientUnits="userSpaceOnUse">
<stop stop-color="white" stop-opacity="0.1"/>
<stop offset="0.6875" stop-color="#1061FF" stop-opacity="0.36"/>
</linearGradient>
<linearGradient id="paint5_linear_2_1631" x1="31.15" y1="6.80811" x2="31.0074" y2="117.307" gradientUnits="userSpaceOnUse">
<stop stop-color="white"/>
<stop offset="1" stop-color="white" stop-opacity="0"/>
</linearGradient>
<linearGradient id="paint6_linear_2_1631" x1="31.1484" y1="33.3188" x2="31.135" y2="135.4" gradientUnits="userSpaceOnUse">
<stop stop-color="white" stop-opacity="0.1"/>
<stop offset="0.6875" stop-color="#1061FF" stop-opacity="0.36"/>
</linearGradient>
</defs>
</svg>
